<svg xmlns="http://www.w3.org/2000/svg" width="374.317" height="55.015"><path d="M46.955 8.048a27.498 27.53 44.318 0 0-38.91.022A27.498 27.53 44.318 0 0 5.5 44.02a16.665 16.665 0 0 0 .631-.314 15.354 15.354 0 0 0 .73-.407 15.24 15.24 0 0 0 .714-.446 15.297 15.297 0 0 0 .695-.484 16.783 16.783 0 0 0 1.962-1.687 16.735 16.735 0 0 0 1.163-1.286 18.585 18.585 0 0 0 .523-.676 17.186 17.186 0 0 0 1.14-1.771 16.093 16.093 0 0 0 .566-1.112 15.603 15.603 0 0 0 .33-.758 3.726 3.726 0 0 0 .135-.389 3.553 3.553 0 0 0 .098-.397 4.2 4.2 0 0 0 .077-.809c0-.135-.013-.27-.02-.405a4.836 4.836 0 0 0-.052-.362v-.042a3.521 3.521 0 0 0-.045-.2 4.781 4.781 0 0 0-.189-.585 4.717 4.717 0 0 0-.082-.19c-.028-.062-.06-.124-.091-.186a5.224 5.224 0 0 0-.214-.36 3.615 3.615 0 0 0-.253-.343 4.789 4.789 0 0 0-.14-.164l-.12-.127c-.014-.013-.02-.02-.03-.031a4.468 4.468 0 0 0-.664-.542 4.615 4.615 0 0 0-.547-.305 3.726 3.726 0 0 0-.577-.217 5.223 5.223 0 0 0-.2-.055 3.818 3.818 0 0 0-.602-.1 4.2 4.2 0 0 0-.406-.02c-.135 0-.27 0-.406-.02a4.65 4.65 0 0 1-.602-.1 4.781 4.781 0 0 1-.585-.189 4.717 4.717 0 0 1-.19-.083c-.063-.028-.124-.06-.186-.091a5.24 5.24 0 0 1-.361-.214 4.731 4.731 0 0 1-.343-.251 3.756 3.756 0 0 1-.321-.29 4.365 4.365 0 0 1-.654-.843 4.529 4.529 0 0 1-.194-.37 5.109 5.109 0 0 1-.155-.382 5.035 5.035 0 0 1-.161-.592 4.201 4.201 0 0 1-.077-.809c0-.135.012-.27.019-.406a4.643 4.643 0 0 1 .1-.602c.016-.067.035-.132.054-.198a4.706 4.706 0 0 1 .135-.387c.026-.065.054-.127.083-.19.029-.063.06-.124.091-.186a5.204 5.204 0 0 1 .213-.36 4.863 4.863 0 0 1 .254-.344 3.762 3.762 0 0 1 .29-.322 4.357 4.357 0 0 1 .843-.654 4.615 4.615 0 0 1 .369-.193 3.767 3.767 0 0 1 .578-.217c.065-.02.13-.037.197-.054a4.196 4.196 0 0 1 1.008-.12c.136 0 .271 0 .406.02a4.65 4.65 0 0 1 .602.1 4.711 4.711 0 0 1 .585.189c.065.026.128.053.19.082.063.029.125.06.187.092a5.351 5.351 0 0 1 .36.213 4.837 4.837 0 0 1 .343.252 3.756 3.756 0 0 1 .322.29 4.357 4.357 0 0 1 .653.843 4.602 4.602 0 0 1 .194.369 3.726 3.726 0 0 1 .217.577c.02.066.037.132.054.198.016.067.032.133.045.2a4.19 4.19 0 0 1 .077.808c0 .136.013.271.02.406a4.642 4.642 0 0 0 .102.603 4.941 4.941 0 0 0 .189.585c.025.064.053.127.082.19.029.063.06.124.091.186a5.224 5.224 0 0 0 .214.36 3.6 3.6 0 0 0 .12.174l.072.093c.02.025.038.052.06.076a3.677 3.677 0 0 0 .29.322 4.364 4.364 0 0 0 .664.542 4.602 4.602 0 0 0 .547.305 3.726 3.726 0 0 0 .382.154c0 .002 0 .001.014.001l.037-.075a11.331 11.331 0 0 0 .387-.955 11.222 11.222 0 0 0 .29-.982c.041-.166.078-.332.11-.499.031-.167.06-.334.085-.502a11.032 11.032 0 0 0 .097-1.012c.013-.17.013-.339.013-.508 0-.17 0-.339-.013-.508-.014-.17-.02-.338-.037-.507a11.001 11.001 0 0 0-.145-1.007 10.815 10.815 0 0 0-.4-1.48c-.013-.028-.02-.054-.03-.082a10.513 10.513 0 0 0-.357-.874 9.741 9.741 0 0 0-.484-.922c-.09-.15-.182-.3-.28-.446a4.602 4.602 0 0 1-.305-.547 5.116 5.116 0 0 1-.155-.382 5.217 5.217 0 0 1-.161-.592 4.203 4.203 0 0 1-.077-.809c0-.136.013-.271.019-.406a4.647 4.647 0 0 1 .102-.603 4.781 4.781 0 0 1 .19-.585c.026-.064.054-.127.083-.19.028-.063.06-.124.091-.186a5.24 5.24 0 0 1 .102-.182c.036-.06.074-.12.112-.179.038-.059.08-.116.12-.174a3.597 3.597 0 0 1 .422-.49 5.44 5.44 0 0 1 .322-.291 4.136 4.136 0 0 1 1.272-.711 4.822 4.822 0 0 1 .392-.117c.067-.015.133-.031.2-.043a4.196 4.196 0 0 1 .809-.077c.135 0 .27 0 .406.02a4.636 4.636 0 0 1 .602.1 4.78 4.78 0 0 1 .586.189 4.717 4.717 0 0 1 .375.174 5.368 5.368 0 0 1 .361.214 4.85 4.85 0 0 1 .343.251 4.8 4.8 0 0 1 .322.29 4.21 4.21 0 0 1 1.064 1.79 5.217 5.217 0 0 1 .099.397 4.206 4.206 0 0 1 .077.809c0 .135-.013.27-.02.406a4.647 4.647 0 0 1-.102.602 3.616 3.616 0 0 1-.117.393 3.901 3.901 0 0 1-.154.382 5.224 5.224 0 0 1-.194.369s-.013.013-.013.018c-.028.056-.055.111-.081.168a15.603 15.603 0 0 0-.62 1.53 14.439 14.439 0 0 0-.252.78 20.18 20.18 0 0 0-.213.79c-.065.265-.124.531-.175.798-.02.107-.035.216-.055.324-.027.16-.057.32-.08.48a16.802 16.802 0 0 0-.175 2.432c0 .27.013.542.02.812.013.271.032.542.057.811-.022.033-.044.066-.068.097a3.677 3.677 0 0 1-.422.49 4.46 4.46 0 0 1-.664.542 4.69 4.69 0 0 1 .174-.12 4.923 4.923 0 0 0 .49-.422 3.471 3.471 0 0 0 .291-.32c.046-.056.09-.112.131-.17.024-.031.046-.064.068-.097.026.27.058.54.097.809.03.21.068.418.106.627h.013a17.532 17.532 0 0 0 1.46-.814 17.51 17.51 0 0 0 1.39-.97 18.825 18.825 0 0 0 .665-.542 21.475 21.475 0 0 0 .643-.582 17.176 17.176 0 0 0 2.712-3.317 15.768 15.768 0 0 0 .625-1.089 15.815 15.815 0 0 0 .538-1.122 15.602 15.602 0 0 0 .45-1.152l.058-.172v-.023a4.776 4.776 0 0 1 .189-.585c.026-.065.054-.128.083-.19.028-.063.06-.125.091-.187a5.21 5.21 0 0 1 .334-.535c.042-.057.085-.113.131-.168a3.592 3.592 0 0 1 .29-.322 4.46 4.46 0 0 1 .664-.542c.06-.04.12-.076.18-.112a4.615 4.615 0 0 1 .368-.193 3.726 3.726 0 0 1 .578-.217 5.21 5.21 0 0 1 .197-.055 4.19 4.19 0 0 1 1.008-.12c.136 0 .272.013.407.02a4.64 4.64 0 0 1 .602.1 3.708 3.708 0 0 1 .393.117 4.724 4.724 0 0 1 .382.156 3.715 3.715 0 0 1 .547.305 3.616 3.616 0 0 1 .343.253 3.672 3.672 0 0 1 .321.29l.035.036.035.034a3.465 3.465 0 0 1 .29.322c.046.055.09.111.131.168a4.83 4.83 0 0 1 .335.535 5.207 5.207 0 0 1 .174.376 3.726 3.726 0 0 1 .136.388c.02.065.037.131.052.197l.045.2a4.193 4.193 0 0 1 .077.809c0 .135-.013.27-.02.406a4.643 4.643 0 0 1-.102.602 4.781 4.781 0 0 1-.189.585 4.717 4.717 0 0 1-.082.19 5.24 5.24 0 0 1-.194.369 4.872 4.872 0 0 1-.364.521 4.946 4.946 0 0 1-.29.322 4.263 4.263 0 0 1-1.594 1.003 4.822 4.822 0 0 1-.393.116h-.023l-.173.058a15.368 15.368 0 0 0-1.151.45 15.485 15.485 0 0 0-.752.35 17.168 17.168 0 0 0-1.814 1.041 14.886 14.886 0 0 0-.695.485 16.841 16.841 0 0 0-2.267 2 17.537 17.537 0 0 0-1.381 1.65 16.785 16.785 0 0 0-1.527 2.508v.013c.209.038.418.076.627.106.27.04.538.07.808.097-.032.022-.065.044-.096.068a3.756 3.756 0 0 0-.49.422 4.365 4.365 0 0 0-.543.664 3.552 3.552 0 0 0-.214.36 5.207 5.207 0 0 0-.247.569c-.022.064-.045.13-.063.196a5.217 5.217 0 0 0-.098.397 4.2 4.2 0 0 0-.077.809c0-.136.013-.272.02-.406a4.19 4.19 0 0 1 .218-.996 4.639 4.639 0 0 1 .156-.382c.028-.063.06-.124.091-.186a5.204 5.204 0 0 1 .334-.535 3.844 3.844 0 0 1 .422-.49 4.357 4.357 0 0 1 .49-.422c.032-.024.065-.046.097-.068a16.797 16.797 0 0 0 1.624.077c.271 0 .542 0 .813-.02a16.783 16.783 0 0 0 1.62-.154c.16-.024.32-.054.479-.081.107-.019.216-.034.324-.055a16.607 16.607 0 0 0 2.368-.64 17.363 17.363 0 0 0 1.53-.62l.168-.081s.013-.013.018-.013a4.615 4.615 0 0 1 .369-.194 5.109 5.109 0 0 1 .382-.154 4.822 4.822 0 0 1 .393-.117 4.196 4.196 0 0 1 1.008-.12c.135 0 .27 0 .406.02a4.64 4.64 0 0 1 .602.1 4.94 4.94 0 0 1 .585.189c.065.026.128.053.19.082.063.029.125.06.187.092a5.224 5.224 0 0 1 .36.213c.06.04.117.08.174.12a3.756 3.756 0 0 1 .49.422 4.357 4.357 0 0 1 .653.843 4.615 4.615 0 0 1 .195.369 3.726 3.726 0 0 1 .217.577c.02.066.037.132.054.198.016.067.032.133.045.2a4.204 4.204 0 0 1 .077.809c0 .135-.013.27-.02.405a4.643 4.643 0 0 1-.102.603 4.781 4.781 0 0 1-.189.585 4.724 4.724 0 0 1-.174.376 5.529 5.529 0 0 1-.213.36 4.828 4.828 0 0 1-.252.343 3.756 3.756 0 0 1-.29.322 4.21 4.21 0 0 1-1.79 1.065c-.065.02-.13.037-.197.054a3.816 3.816 0 0 1-.602.1c-.135.013-.27.02-.406.02s-.271 0-.406-.02a4.65 4.65 0 0 1-.602-.1 4.867 4.867 0 0 1-.585-.189 4.724 4.724 0 0 1-.19-.083c-.063-.028-.125-.06-.187-.091a5.224 5.224 0 0 1-.36-.214 10.372 10.372 0 0 0-2.242-1.12c-.028-.013-.054-.02-.082-.03a11.22 11.22 0 0 0-.982-.29 11.002 11.002 0 0 0-1.506-.254 11.013 11.013 0 0 0-.506-.037c-.17-.014-.339-.014-.508-.014-.17 0-.34 0-.508.014-.17.013-.338.02-.507.036a11.028 11.028 0 0 0-1.008.146 10.81 10.81 0 0 0-1.48.399 9.751 9.751 0 0 0-.956.388l-.074.036v.013a4.717 4.717 0 0 0 .246.568c.033.062.065.123.102.183a4.828 4.828 0 0 0 .363.521 3.75 3.75 0 0 0 .29.322 4.366 4.366 0 0 0 .322.29c.025.022.05.04.076.06.032.023.062.048.093.072a3.977 3.977 0 0 0 .353.232 4.687 4.687 0 0 0 .368.193 5.207 5.207 0 0 0 .382.156 4.822 4.822 0 0 0 .393.117 3.819 3.819 0 0 0 .602.1c.136.014.271.02.407.02.135 0 .27 0 .406.02a4.65 4.65 0 0 1 .602.1 4.781 4.781 0 0 1 .585.189c.064.027.127.054.19.083.063.029.124.06.186.092a5.393 5.393 0 0 1 .36.213 4.974 4.974 0 0 1 .344.251 4.933 4.933 0 0 1 .321.291 3.47 3.47 0 0 1 .291.322 4.136 4.136 0 0 1 .711 1.272 5.035 5.035 0 0 1 .161.592 4.19 4.19 0 0 1 .077.809c0 .136-.013.271-.02.406a4.65 4.65 0 0 1-.101.602 4.711 4.711 0 0 1-.189.585 4.717 4.717 0 0 1-.174.377 5.24 5.24 0 0 1-.214.36 4.85 4.85 0 0 1-.251.343 4.8 4.8 0 0 1-.29.322 4.365 4.365 0 0 1-.843.654 4.615 4.615 0 0 1-.37.193 3.729 3.729 0 0 1-.577.217 5.035 5.035 0 0 1-.396.098 4.196 4.196 0 0 1-.81.077c-.135 0-.27 0-.405-.02a4.643 4.643 0 0 1-.603-.1 4.781 4.781 0 0 1-.585-.189 4.717 4.717 0 0 1-.19-.083c-.063-.029-.124-.06-.186-.091a5.224 5.224 0 0 1-.36-.214 4.837 4.837 0 0 1-.344-.251 4.8 4.8 0 0 1-.321-.291 4.357 4.357 0 0 1-.654-.843c-.035-.06-.07-.12-.102-.182-.031-.062-.063-.123-.092-.186a5.116 5.116 0 0 1-.155-.383 5.217 5.217 0 0 1-.117-.393 3.819 3.819 0 0 1-.102-.602 4.2 4.2 0 0 1-.02-.406c0-.135-.013-.27-.02-.406a4.642 4.642 0 0 0-.102-.602 4.711 4.711 0 0 0-.189-.585 4.717 4.717 0 0 0-.082-.19c-.028-.063-.06-.125-.091-.187a5.393 5.393 0 0 0-.214-.36 3.593 3.593 0 0 0-.251-.343 3.769 3.769 0 0 0-.29-.322l-.031-.03c-.042-.04-.084-.081-.127-.12a4.365 4.365 0 0 0-.685-.504 4.529 4.529 0 0 0-.368-.194 3.729 3.729 0 0 0-.578-.217 5.217 5.217 0 0 0-.198-.054c-.066-.015-.132-.031-.199-.043h-.042a4.169 4.169 0 0 0-.767-.072c-.136 0-.271 0-.406.02a4.64 4.64 0 0 0-.602.1 4.776 4.776 0 0 0-.585.189 14.52 14.52 0 0 0-.76.33 14.087 14.087 0 0 0-.744.368 15.14 15.14 0 0 0-.73.407 15.225 15.225 0 0 0-.713.446 15.305 15.305 0 0 0-.696.484 17.624 17.624 0 0 0-1.005.8 16.796 16.796 0 0 0-1.262 1.2 17.5 17.5 0 0 0-1.38 1.65 16.794 16.794 0 0 0-1.528 2.508c-.044.088-.085.177-.127.266a27.498 27.53 44.318 0 0 35.951-2.55 27.498 27.53 44.318 0 0 .023-38.911z" fill="red"/><text style="line-height:1.25;-inkscape-font-specification:Overpass" x="-133.253" y="161.338" font-weight="400" font-size="56" font-family="Overpass" letter-spacing="0" word-spacing="0" fill="#fff" transform="translate(191.976 -114.84)"><tspan x="-133.253" y="161.338" style="-inkscape-font-specification:'Overpass Ultra-Light'" font-weight="200" letter-spacing="-7">DISTRIBUTED CI</tspan></text></svg>