<?xml version="1.0" encoding="UTF-8" standalone="no"?>
<svg
   xmlns:dc="http://purl.org/dc/elements/1.1/"
   xmlns:cc="http://creativecommons.org/ns#"
   xmlns:rdf="http://www.w3.org/1999/02/22-rdf-syntax-ns#"
   xmlns:svg="http://www.w3.org/2000/svg"
   xmlns="http://www.w3.org/2000/svg"
   xmlns:sodipodi="http://sodipodi.sourceforge.net/DTD/sodipodi-0.dtd"
   xmlns:inkscape="http://www.inkscape.org/namespaces/inkscape"
   version="1.1"
   id="svg2"
   width="100"
   height="10"
   viewBox="0 0 100 10"
   sodipodi:docname="gecko.svg"
   inkscape:version="0.92+devel unknown"
   inkscape:export-xdpi="299.96509"
   inkscape:export-ydpi="299.96509">
  <metadata
     id="metadata8">
    <rdf:RDF>
      <cc:Work
         rdf:about="">
        <dc:format>image/svg+xml</dc:format>
        <dc:type
           rdf:resource="http://purl.org/dc/dcmitype/StillImage" />
        <dc:title />
      </cc:Work>
    </rdf:RDF>
  </metadata>
  <defs
     id="defs6" />
  <sodipodi:namedview
     pagecolor="#232323"
     bordercolor="#666666"
     inkscape:document-rotation="0"
     borderopacity="1"
     objecttolerance="10"
     gridtolerance="10"
     guidetolerance="10"
     inkscape:pageopacity="0"
     inkscape:pageshadow="2"
     inkscape:window-width="1920"
     inkscape:window-height="1016"
     id="namedview4"
     showgrid="false"
     inkscape:zoom="8.9233188"
     inkscape:cx="41.007815"
     inkscape:cy="-7.7079157"
     inkscape:window-x="0"
     inkscape:window-y="27"
     inkscape:window-maximized="1"
     inkscape:current-layer="g10"
     borderlayer="false"
     inkscape:showpageshadow="false" />
  <g
     inkscape:groupmode="layer"
     inkscape:label="Image"
     id="g10"
     transform="translate(-3.4423932,-137.34796)">
    <path
       style="vector-effect:none;fill:#ffffff;stroke:none;stroke-width:2.48303366;stroke-linecap:round;stroke-linejoin:round"
       d="m 5.3503696,138.4256 c -0.1854489,0.1435 0.076688,0.32671 0.3477925,0.61148 0.2514104,0.26411 0.3971497,0.3954 0.9453869,0.84735 0.433608,0.35747 0.456305,0.37198 0.826969,0.56958 l 0.321882,0.17194 0.197335,0.009 c 0.229159,0.008 0.29239,-0.015 0.389178,-0.13842 0.09334,-0.11905 0.219165,-0.35705 0.292959,-0.55437 0.06451,-0.17242 0.06414,-0.17763 0.07099,-0.5404 0.0068,-0.36116 0.0073,-0.36842 0.06221,-0.47556 0.09968,-0.19479 0.285787,-0.32966 0.521432,-0.38136 0.3490089,-0.0768 0.699785,0.0937 0.84125,0.4094 0.04449,0.0996 0.04958,0.13473 0.04384,0.29903 -0.006,0.17218 -0.01319,0.19691 -0.07844,0.31865 -0.09453,0.1763 -0.2547091,0.32363 -0.4576551,0.42049 -0.279085,0.13316 -0.4590579,0.34567 -0.5911239,0.69814 -0.06905,0.18433 -0.06969,0.23713 -0.0079,0.47529 0.07238,0.27888 0.121397,0.31927 0.4581309,0.3743 0.113838,0.0195 1.2968011,0.0658 1.4008071,0.0556 0.01287,-6.6e-4 0.07586,-0.0462 0.140267,-0.0992 0.223794,-0.18448 0.482188,-0.25009 0.713037,-0.20963 0.230849,0.0403 0.434147,0.18693 0.543064,0.42939 0.04981,0.1109 0.0569,0.14813 0.05298,0.28634 -0.0053,0.18768 -0.04473,0.29888 -0.165929,0.46106 -0.142223,0.19032 -0.364758,0.30209 -0.594463,0.2963 -0.150606,-0.003 -0.255029,-0.0419 -0.469436,-0.17492 -0.256979,-0.15953 -0.32756,-0.17732 -0.813668,-0.20431 -0.7190831,-0.0402 -0.955597,0.0147 -1.053034,0.24552 -0.04424,0.10489 -0.03484,0.23058 0.02826,0.37232 0.07589,0.17044 0.4803709,0.56959 0.747248,0.73836 0.211539,0.13379 0.302706,0.16401 0.579438,0.19614 0.139056,0.016 0.288886,0.0447 0.332255,0.0614 0.349736,0.13742 0.531021,0.5617 0.405605,0.94575 -0.119647,0.36639 -0.527922,0.58814 -0.871999,0.47118 -0.300854,-0.10233 -0.5265411,-0.44961 -0.5604501,-0.86431 -0.01733,-0.21207 -0.127978,-0.35333 -0.440696,-0.5626 -0.08954,-0.0599 -0.2312859,-0.16237 -0.3134829,-0.22594 -0.169146,-0.13103 -0.291979,-0.17957 -0.466888,-0.18569 -0.170095,-0.004 -0.233872,0.0369 -0.340308,0.23135 l -0.08353,0.15343 -0.01369,0.39255 c -0.01569,0.45419 -0.01555,0.45563 0.183665,0.71 0.152754,0.19505 0.187884,0.27526 0.192981,0.44323 0.0054,0.17688 -0.03991,0.31566 -0.151051,0.47028 -0.277971,0.38668 -0.811734,0.43473 -1.11968,0.102 -0.11958,-0.12916 -0.17326,-0.24272 -0.198303,-0.41517 -0.03673,-0.25276 0.05824,-0.49862 0.286232,-0.73484 0.08575,-0.0888 0.141852,-0.16344 0.157296,-0.21382 0.01311,-0.0428 0.03332,-0.27357 0.04398,-0.51312 l 0.01739,-0.43588 -0.04819,-0.11241 c -0.02771,-0.0617 -0.09523,-0.1571 -0.151053,-0.21374 -0.09492,-0.0967 -0.109665,-0.10345 -0.234628,-0.12112 -0.152067,-0.0217 -0.395705,-0.0158 -0.506385,0.0126 -0.08734,0.0222 -0.228111,0.13462 -0.259077,0.20591 -0.01159,0.0269 -0.03088,0.14211 -0.04371,0.2569 -0.03392,0.30309 -0.116521,0.44336 -0.3304338,0.57042 -0.2509126,0.14905 -0.5420713,0.1305 -0.7666398,0.003 -0.2245728,-0.12686 -0.3825598,-0.36204 -0.3726055,-0.6471 0.011155,-0.32392 0.2509903,-0.64853 0.5468657,-0.73659 0.08101,-0.0247 0.1390217,-0.0258 0.3173251,-0.009 0.208113,0.0201 0.2224095,0.0199 0.3309427,-0.0253 0.2602386,-0.10845 0.5887666,-0.38927 0.6915916,-0.59039 0.04695,-0.0918 0.05735,-0.13869 0.06121,-0.26062 0.0041,-0.13297 -0.0021,-0.16588 -0.06531,-0.3063 -0.06129,-0.13621 -0.106277,-0.19505 -0.344719,-0.45068 -0.151382,-0.16229 -0.4093475,-0.41043 -0.57143,-0.5498 -0.1620847,-0.13941 -0.4487035,-0.38808 -0.6386646,-0.55217 -0.3961574,-0.34224 -0.6175726,-0.50469 -0.8255323,-0.6108 -0.077955,-0.0397 -0.162007,-0.11495 -0.1999532,-0.057 -0.5091694,0.7781 -0.8122814,1.67446 -0.8466087,2.6045 -0.096377,2.75985 2.062692,5.07525 4.8223998,5.17163 2.759708,0.0965 5.075019,-2.06279 5.17139,-4.82262 0.09638,-2.75985 -2.062691,-5.07524 -4.822399,-5.17163 -1.1818,-0.0388 -2.328416,0.35004 -3.266497,1.07593 z"
       id="path4293"
       inkscape:connector-curvature="0"
       sodipodi:nodetypes="acccccccccccscccccccsccccccccccccccccscccccccccccccccccccssccccccccccscssca"
       inkscape:export-xdpi="2457.6001"
       inkscape:export-ydpi="2457.6001" />
    <text
       xml:space="preserve"
       style="font-size:12.51377392px;line-height:1.25;font-family:Amaranth;-inkscape-font-specification:Amaranth;letter-spacing:0px;word-spacing:0px;writing-mode:lr-tb;display:inline;stroke-width:0.07821108"
       x="14.076488"
       y="146.72778"
       id="text4277"
       inkscape:export-xdpi="288.25598"
       inkscape:export-ydpi="288.25598"><tspan
         sodipodi:role="line"
         id="tspan4275"
         x="14.076488"
         y="146.72778"
         style="font-style:normal;font-variant:normal;font-weight:normal;font-stretch:normal;font-family:Overpass;-inkscape-font-specification:Overpass;letter-spacing:-0.56468719px;fill:#ffffff;stroke-width:0.07821108"><tspan
           style="font-style:normal;font-variant:normal;font-weight:900;font-stretch:normal;font-family:Overpass;-inkscape-font-specification:'Overpass Heavy';letter-spacing:-0.56468719px;stroke-width:0.07821108"
           id="tspan4298">DISTRIBUTED <tspan
   style="font-style:normal;font-variant:normal;font-weight:100;font-stretch:normal;font-family:Overpass;-inkscape-font-specification:'Overpass Thin'"
   id="tspan3723">CI</tspan></tspan></tspan></text>
  </g>
</svg>
