<?xml version="1.0" encoding="UTF-8" standalone="no"?>
<!-- Created with Inkscape (http://www.inkscape.org/) -->

<svg
   xmlns:dc="http://purl.org/dc/elements/1.1/"
   xmlns:cc="http://creativecommons.org/ns#"
   xmlns:rdf="http://www.w3.org/1999/02/22-rdf-syntax-ns#"
   xmlns:svg="http://www.w3.org/2000/svg"
   xmlns="http://www.w3.org/2000/svg"
   xmlns:sodipodi="http://sodipodi.sourceforge.net/DTD/sodipodi-0.dtd"
   xmlns:inkscape="http://www.inkscape.org/namespaces/inkscape"
   version="1.1"
   id="svg2"
   width="101.77637"
   height="9.9998732"
   viewBox="0 0 101.77637 9.9998732"
   sodipodi:docname="5.svg"
   inkscape:version="0.92+devel unknown"
   inkscape:export-filename="/home/guillaume/Pictures/dci logo/gecko.png"
   inkscape:export-xdpi="299.96509"
   inkscape:export-ydpi="299.96509">
  <metadata
     id="metadata8">
    <rdf:RDF>
      <cc:Work
         rdf:about="">
        <dc:format>image/svg+xml</dc:format>
        <dc:type
           rdf:resource="http://purl.org/dc/dcmitype/StillImage" />
        <dc:title></dc:title>
      </cc:Work>
    </rdf:RDF>
  </metadata>
  <defs
     id="defs6" />
  <sodipodi:namedview
     pagecolor="#232323"
     bordercolor="#666666"
     inkscape:document-rotation="0"
     borderopacity="1"
     objecttolerance="10"
     gridtolerance="10"
     guidetolerance="10"
     inkscape:pageopacity="0"
     inkscape:pageshadow="2"
     inkscape:window-width="1920"
     inkscape:window-height="1016"
     id="namedview4"
     showgrid="false"
     inkscape:zoom="8.5695792"
     inkscape:cx="14.952315"
     inkscape:cy="-3.6930118"
     inkscape:window-x="0"
     inkscape:window-y="27"
     inkscape:window-maximized="1"
     inkscape:current-layer="g10"
     borderlayer="false"
     inkscape:showpageshadow="false" />
  <g
     inkscape:groupmode="layer"
     inkscape:label="Image"
     id="g10"
     transform="translate(-3.4423932,-137.34809)">
    <text
       xml:space="preserve"
       style="font-size:12.51377392px;line-height:1.25;font-family:Amaranth;-inkscape-font-specification:Amaranth;letter-spacing:0px;word-spacing:0px;writing-mode:lr-tb;display:inline;stroke-width:0.07821108"
       x="15.042798"
       y="146.72794"
       id="text4277"
       inkscape:export-xdpi="288.25598"
       inkscape:export-ydpi="288.25598"><tspan
         sodipodi:role="line"
         id="tspan4275"
         x="15.042798"
         y="146.72794"
         style="font-style:normal;font-variant:normal;font-weight:normal;font-stretch:normal;font-family:Overpass;-inkscape-font-specification:Overpass;letter-spacing:-0.56468719px;fill:#ffffff;stroke-width:0.07821108"><tspan
           style="font-style:normal;font-variant:normal;font-weight:900;font-stretch:normal;font-family:Overpass;-inkscape-font-specification:'Overpass Heavy';letter-spacing:-0.56468719px;stroke-width:0.07821108"
           id="tspan4298">DISTRIBUTED <tspan
   style="font-style:normal;font-variant:normal;font-weight:100;font-stretch:normal;font-family:Overpass;-inkscape-font-specification:'Overpass Thin'"
   id="tspan3723">CI</tspan></tspan></tspan></text>
    <path
       style="fill:#ffffff;stroke-width:0.01808205"
       d="M 7.9011463,147.33758 C 7.0107691,147.24339 6.1539332,146.90201 5.4148652,146.34707 5.143549,146.14334 4.6561178,145.65591 4.4523967,145.38459 3.9661043,144.73695 3.6518802,144.02 3.5093289,143.23283 c -0.089115,-0.49209 -0.089263,-1.22726 -3.509e-4,-1.75395 0.1497736,-0.88724 0.370056,-1.39999 0.6658277,-1.54987 0.080192,-0.0407 0.1060765,-0.0446 0.2444657,-0.0376 0.1294722,0.007 0.1772538,0.0183 0.2922344,0.0719 0.1954334,0.0911 0.4048674,0.23533 0.7816843,0.53828 0.1806856,0.14526 0.4546419,0.36505 0.6087912,0.48841 0.1541484,0.12336 0.3989171,0.3428 0.5439254,0.48764 0.2283989,0.22813 0.2730645,0.28242 0.3340486,0.40611 0.062867,0.12749 0.070444,0.15747 0.070857,0.28027 3.781e-4,0.11259 -0.00849,0.15659 -0.048883,0.24284 -0.088456,0.18885 -0.3822101,0.45731 -0.6189984,0.56572 -0.098756,0.0452 -0.1123604,0.0468 -0.3051679,0.0348 -0.1651911,-0.0102 -0.2182059,-0.007 -0.2922131,0.0179 -0.2703499,0.0908 -0.4827906,0.39728 -0.4827906,0.69647 0,0.52656 0.6205624,0.84851 1.0742989,0.55735 0.1934144,-0.12412 0.263435,-0.25599 0.284978,-0.53669 0.00815,-0.10628 0.022965,-0.21383 0.032867,-0.23908 0.026294,-0.0667 0.1531153,-0.17453 0.2330431,-0.19794 0.1012744,-0.0297 0.3260068,-0.0431 0.4671115,-0.028 0.1159539,0.0124 0.1288489,0.0185 0.2196144,0.10435 0.053369,0.0505 0.1186687,0.1365 0.1462388,0.19264 l 0.049813,0.10142 -0.00385,0.40243 c -0.00211,0.22133 -0.012634,0.43503 -0.023348,0.4749 -0.012634,0.047 -0.061061,0.11859 -0.1373731,0.20332 -0.2028947,0.22525 -0.2835566,0.4546 -0.2414862,0.68659 0.028684,0.15826 0.08289,0.26175 0.1974651,0.37705 0.2950601,0.29696 0.7864014,0.23435 1.0305917,-0.13132 0.097633,-0.14621 0.1339713,-0.27539 0.1233213,-0.4384 -0.010119,-0.15478 -0.044709,-0.22725 -0.1920398,-0.40227 -0.1921423,-0.22824 -0.1924283,-0.2292 -0.1925863,-0.6487 l -1.442e-4,-0.36246 0.07233,-0.14384 c 0.092003,-0.18296 0.1495683,-0.22522 0.3067943,-0.22522 0.1616951,0 0.2771196,0.0412 0.437521,0.15651 0.077943,0.056 0.2109408,0.14465 0.295551,0.19705 0.295487,0.18298 0.4026776,0.31027 0.425527,0.50534 0.044683,0.38145 0.2636872,0.69476 0.5447702,0.77935 0.321466,0.0968 0.69268,-0.11983 0.791339,-0.46168 0.103417,-0.35832 -0.07936,-0.74501 -0.406711,-0.86052 -0.04059,-0.0143 -0.179286,-0.0346 -0.308194,-0.0449 -0.25655,-0.0207 -0.341399,-0.0463 -0.5410324,-0.16286 -0.2518544,-0.14709 -0.638042,-0.50316 -0.7136047,-0.65795 -0.062833,-0.12872 -0.075796,-0.24454 -0.038331,-0.34261 0.082523,-0.21608 0.2990768,-0.27462 0.9643201,-0.26066 0.449706,0.009 0.516397,0.0237 0.758815,0.16254 0.202256,0.11582 0.299304,0.14828 0.438465,0.14666 0.212278,-0.002 0.413708,-0.11147 0.538889,-0.29162 0.10667,-0.15352 0.140374,-0.25789 0.139251,-0.4312 -8.3e-4,-0.12759 -0.0086,-0.16265 -0.05818,-0.2634 -0.216767,-0.44032 -0.765418,-0.51623 -1.166791,-0.16145 -0.05776,0.051 -0.11472,0.0942 -0.126574,0.0958 -0.0957,0.0128 -1.1900298,0.009 -1.2957691,-0.005 -0.3126891,-0.0399 -0.3598646,-0.0757 -0.435689,-0.33074 -0.064723,-0.2177 -0.065577,-0.26601 -0.00777,-0.43828 0.1105759,-0.32939 0.2699828,-0.53139 0.5233742,-0.66322 0.1842627,-0.0959 0.32841,-0.23768 0.4100067,-0.40336 0.056335,-0.11439 0.060996,-0.13703 0.060996,-0.29606 0,-0.15174 -0.00597,-0.18439 -0.050291,-0.27462 -0.1407965,-0.28671 -0.4703017,-0.43318 -0.7900774,-0.35119 -0.2159093,0.0553 -0.3821504,0.18665 -0.4679033,0.36955 -0.047201,0.10063 -0.047803,0.10695 -0.042471,0.44032 0.00538,0.33487 0.00491,0.33978 -0.049096,0.50092 -0.061773,0.1844 -0.1702536,0.40809 -0.2526014,0.52092 -0.085388,0.11698 -0.1429095,0.13973 -0.3547338,0.1403 l -0.1808518,5.2e-4 -0.3028161,-0.1483 C 7.1411249,140.46369 7.1196091,140.44992 6.7077221,140.13414 6.1869499,139.73488 6.0470212,139.61823 5.8063712,139.3827 5.466,139.04958 5.3606099,138.87807 5.3606099,138.6573 c 0,-0.12831 0.031161,-0.21143 0.1197955,-0.3196 0.2809699,-0.34289 1.2838048,-0.76424 2.2579917,-0.9487 0.1950407,-0.0369 0.2709304,-0.0411 0.7504048,-0.0409 0.4707171,1.6e-4 0.5610522,0.005 0.7684869,0.0409 0.8459172,0.14627 1.5608302,0.45285 2.2331322,0.95765 0.271314,0.20372 0.758748,0.69115 0.962469,0.96247 0.505208,0.67284 0.810428,1.38518 0.957813,2.23539 0.03598,0.20752 0.04034,0.29468 0.04034,0.80239 0,0.50772 -0.0044,0.59488 -0.04034,0.80239 -0.14738,0.85022 -0.4526,1.56255 -0.957808,2.23539 -0.203722,0.27132 -0.691153,0.75875 -0.96247,0.96248 -0.670085,0.50313 -1.39428,0.81423 -2.2240899,0.9554 -0.1836438,0.0313 -0.3192711,0.0395 -0.7232819,0.0444 -0.2734914,0.003 -0.5623515,-9.1e-4 -0.6419125,-0.009 z"
       id="path5481"
       inkscape:connector-curvature="0"
       inkscape:export-filename="/home/guillaume/workspace/dci-dev-env/dci-ui/src/images/gecko.png"
       inkscape:export-xdpi="288.00366"
       inkscape:export-ydpi="288.00366" />
  </g>
</svg>
