<svg xmlns="http://www.w3.org/2000/svg" version="1.1" id="svg40" width="52.68" height="52.679"><defs id="defs4"><style id="style2"></style></defs><path d="M26.419 31.623a16.337 16.337 0 003.884-.093c.154-.022.306-.051.46-.078.103-.018.206-.032.31-.052a16.272 16.272 0 003.732-1.207l.161-.077.018-.01a4.029 4.029 0 011.672-.544 4.084 4.084 0 011.731.21 4.027 4.027 0 011.805 1.268 3.868 3.868 0 01.348.499 3.902 3.902 0 01.394.906 3.926 3.926 0 01.15.766 4.092 4.092 0 01-.15 1.544 4.019 4.019 0 01-1.02 1.713 4.086 4.086 0 01-.983.724 4.052 4.052 0 01-2.66.39 4.035 4.035 0 01-1.458-.594 10.043 10.043 0 00-2.147-1.073l-.077-.03a10.198 10.198 0 00-7.624.371l-.072.036a5.118 5.118 0 00.075.193 4.107 4.107 0 00.612 1.034 3.837 3.837 0 00.278.308c.098.098.201.191.308.279.024.02.049.037.073.056l.09.07a4.02 4.02 0 001.056.556c.43.15.884.228 1.341.227a4.087 4.087 0 011.527.297 4.027 4.027 0 011.62 1.2 3.973 3.973 0 01.682 1.218 4.643 4.643 0 01.154.567 4.085 4.085 0 01-.154 2.116 3.919 3.919 0 01-.334.72 4.383 4.383 0 01-.223.337 4.128 4.128 0 01-1.21 1.096 4.075 4.075 0 01-4.293-.107 4.033 4.033 0 01-.915-.827 4.067 4.067 0 01-.682-1.219 4.037 4.037 0 01-.228-1.342 4.072 4.072 0 00-.669-2.231 4.087 4.087 0 00-.52-.637l-.029-.028a4.089 4.089 0 00-.952-.696 4.036 4.036 0 00-1.111-.39l-.04-.005a4.07 4.07 0 00-2.261.228 16.22 16.22 0 00-2.483 1.267 16.242 16.242 0 00-2.584 2.005 16.617 16.617 0 00-1.669 1.846 16.087 16.087 0 00-1.708 2.729c-.042.084-.082.169-.122.254 10.477 7.86 25.148 6.82 34.43-2.443 10.295-10.296 10.305-26.98.02-37.264h-.004C34.684-2.576 18.001-2.567 7.705 7.729c-9.26 9.283-10.298 23.953-2.438 34.429l.25-.12a15.917 15.917 0 002.403-1.462A16.048 16.048 0 009.8 38.96a16.654 16.654 0 001.614-1.88 16.291 16.291 0 001.09-1.696 15.822 15.822 0 00.929-1.976 4.03 4.03 0 00.16-2.077c-.005-.012-.005-.026-.006-.04a3.946 3.946 0 00-.153-.566 3.922 3.922 0 00-.334-.72 3.917 3.917 0 00-.598-.777l-.029-.03a4.087 4.087 0 00-1.341-.89 4.046 4.046 0 00-1.527-.297 4.07 4.07 0 01-2.398-.785 4.086 4.086 0 01-.873-.873 4.033 4.033 0 01-.785-2.399 4.087 4.087 0 01.562-2.06 4.018 4.018 0 01.778-.952 4.042 4.042 0 013.105-1.025 4.023 4.023 0 012.758 1.477 3.973 3.973 0 01.682 1.219 3.982 3.982 0 01.228 1.342 4.087 4.087 0 00.298 1.526 4.054 4.054 0 00.487.872l.069.089.056.072a3.838 3.838 0 00.279.308 4.063 4.063 0 001.526.961l.009.003.035-.072a10.017 10.017 0 00.754-2.333 10.133 10.133 0 00.081-3.392 10.43 10.43 0 00-.313-1.432 9.778 9.778 0 00-.15-.467l-.03-.078a10.061 10.061 0 00-1.073-2.147 3.639 3.639 0 01-.204-.346 3.795 3.795 0 01-.236-.544 3.414 3.414 0 01-.112-.376 4.086 4.086 0 01.112-2.307 4.105 4.105 0 01.44-.89 4.093 4.093 0 011.68-1.45 4.075 4.075 0 012.483-.3 4.08 4.08 0 011.111.389 4.046 4.046 0 011.26 1.032 3.979 3.979 0 01.683 1.218 3.917 3.917 0 01.153.567 4.086 4.086 0 01-.223 2.301 4.05 4.05 0 01-.264.535c-.005.006-.008.012-.011.018l-.077.16a16.203 16.203 0 00-1.207 3.734c-.02.102-.034.206-.052.31-.027.153-.056.305-.078.46a16.619 16.619 0 00-.167 2.328c0 .52.025 1.038.074 1.555m0 0c.025.259.056.517.093.774.029.201.065.401.102.6l.01-.004a16.037 16.037 0 003.367-2.228 16.584 16.584 0 002.531-2.729 16.308 16.308 0 00.891-1.348 16.031 16.031 0 001.336-2.877c.02-.055.037-.11.056-.165 0-.007.005-.015.005-.023a3.723 3.723 0 01.112-.376 4.113 4.113 0 01.682-1.218 3.932 3.932 0 01.43-.452 4.013 4.013 0 011.374-.817 4.073 4.073 0 012.684 0 4.012 4.012 0 011.526.961l.033.034.034.033a3.944 3.944 0 01.278.308 3.98 3.98 0 01.743 1.405c.019.063.036.126.05.19a4.085 4.085 0 01-.26 2.674 4.152 4.152 0 01-.533.851 4.208 4.208 0 01-.278.308 4.055 4.055 0 01-1.902 1.072l-.023.005-.165.056a16.073 16.073 0 00-5.189 2.993 16.493 16.493 0 00-2.995 3.394 16.202 16.202 0 00-.998 1.737c-.005.004-.005.008-.005.012.2.036.4.072.6.101.258.037.516.068.775.093" id="path2" fill="#e00" fill-opacity="1" stroke-width=".103"/></svg>