<?xml version="1.0" encoding="UTF-8" standalone="no"?>
<svg
   xmlns:dc="http://purl.org/dc/elements/1.1/"
   xmlns:cc="http://creativecommons.org/ns#"
   xmlns:rdf="http://www.w3.org/1999/02/22-rdf-syntax-ns#"
   xmlns:svg="http://www.w3.org/2000/svg"
   xmlns="http://www.w3.org/2000/svg"
   xmlns:sodipodi="http://sodipodi.sourceforge.net/DTD/sodipodi-0.dtd"
   xmlns:inkscape="http://www.inkscape.org/namespaces/inkscape"
   viewBox="0 0 512.0022 512.00262"
   aria-label="Guidelines"
   version="1.1"
   id="svg4"
   sodipodi:docname="icon.svg"
   inkscape:version="0.92.2 (5c3e80d, 2017-08-06)"
   width="512.0022"
   height="512.00262">
  <metadata
     id="metadata10">
    <rdf:RDF>
      <cc:Work
         rdf:about="">
        <dc:format>image/svg+xml</dc:format>
        <dc:type
           rdf:resource="http://purl.org/dc/dcmitype/StillImage" />
        <dc:title></dc:title>
      </cc:Work>
    </rdf:RDF>
  </metadata>
  <defs
     id="defs8" />
  <sodipodi:namedview
     pagecolor="#ffffff"
     bordercolor="#666666"
     borderopacity="1"
     objecttolerance="10"
     gridtolerance="10"
     guidetolerance="10"
     inkscape:pageopacity="0"
     inkscape:pageshadow="2"
     inkscape:window-width="1920"
     inkscape:window-height="1016"
     id="namedview6"
     showgrid="false"
     inkscape:zoom="1.3037281"
     inkscape:cx="-111.42119"
     inkscape:cy="218.84334"
     inkscape:window-x="0"
     inkscape:window-y="27"
     inkscape:window-maximized="1"
     inkscape:current-layer="svg4"
     inkscape:pagecheckerboard="true"
     fit-margin-top="0"
     fit-margin-left="0"
     fit-margin-right="0"
     fit-margin-bottom="0" />
  <path
     d="m 256.76942,307.34676 c 5.02334,0.48054 10.06673,0.72148 15.113,0.722 5.04664,0 10.0904,-0.24128 15.114,-0.723 2.513,-0.24 5.022,-0.54 7.523,-0.902 1.493,-0.215 2.978,-0.495 4.466,-0.754 1.004,-0.174 2.012,-0.315 3.013,-0.509 4.98136,-0.96489 9.9134,-2.16895 14.779,-3.608 7.35572,-2.17702 14.54198,-4.89029 21.501,-8.118 0.524,-0.244 1.043,-0.5 1.565,-0.75 0.058,-0.036 0.116,-0.073 0.174,-0.107 3.31609,-1.95896 6.90304,-3.418 10.645,-4.33 1.84402,-0.449 3.71781,-0.76547 5.607,-0.947 4.4101,-0.42109 8.85958,-0.101 13.164,0.947 1.23527,0.30237 2.45534,0.66378 3.656,1.083 4.30259,1.50377 8.30947,3.74748 11.84,6.63 1.56826,1.27808 3.03623,2.6745 4.391,4.177 0.454,0.5 0.888,1.007 1.309,1.523 0.422,0.516 0.827,1.04 1.218,1.573 0.387,0.532 0.766,1.071 1.127,1.617 0.356,0.547 0.706,1.1 1.037,1.66 0.334,0.56 0.647,1.127 0.947,1.699 0.60027,1.13772 1.14231,2.30523 1.624,3.498 0.24,0.593 0.463,1.191 0.676,1.793 0.214,0.602 0.41,1.208 0.587,1.817 0.182,0.61 0.347,1.223 0.498,1.84 0.4525,1.84343 0.77001,3.7174 0.95,5.607 0.12,1.255 0.183,2.517 0.183,3.778 -0.003,3.16228 -0.38305,6.31293 -1.133,9.385 -0.15044,0.61678 -0.31649,1.22964 -0.498,1.838 -0.72663,2.45901 -1.69363,4.8405 -2.887,7.11 -0.30232,0.57334 -0.61808,1.13949 -0.947,1.698 -0.333,0.56 -0.676,1.113 -1.037,1.66 -0.36354,0.54768 -0.7393,1.08715 -1.127,1.618 -0.79048,1.07294 -1.63386,2.10588 -2.527,3.095 -0.453,0.5 -0.916,0.99 -1.397,1.471 -1.88642,1.88713 -3.95823,3.57934 -6.184,5.051 -1.08631,0.71655 -2.20734,1.37902 -3.359,1.985 -2.27004,1.19146 -4.651,2.15838 -7.109,2.887 -1.2164,0.35884 -2.44911,0.65984 -3.694,0.902 -4.9733,0.96136 -10.0847,0.96136 -15.058,0 -5.05378,-0.97631 -9.86593,-2.93793 -14.162,-5.773 -4.06002,-2.68192 -8.31488,-5.05654 -12.729,-7.104 -1.455,-0.67521 -2.92645,-1.31441 -4.413,-1.917 -1.23226,-0.49407 -2.47453,-0.96284 -3.726,-1.406 -0.254,-0.091 -0.504,-0.196 -0.756,-0.285 -8.98168,-3.14021 -18.37079,-4.96312 -27.875,-5.412 -9.47775,-0.45207 -18.97131,0.45923 -28.19,2.706 -3.08883,0.75415 -6.13939,1.6572 -9.141,2.706 -3.02183,1.05665 -5.99006,2.26076 -8.894,3.608 -0.236,0.109 -0.463,0.234 -0.697,0.345 0,0.03 0,0.057 0.049,0.087 0.213,0.602 0.44,1.2 0.676,1.793 0.72951,1.79236 1.58844,3.52928 2.57,5.197 1.00504,1.69884 2.13587,3.32003 3.383,4.85 0.418,0.516 0.857,1.024 1.308,1.523 0.454,0.5 0.917,0.99 1.399,1.471 0.95083,0.95286 1.95015,1.85606 2.994,2.706 0.231,0.19 0.468,0.364 0.706,0.548 0.29,0.224 0.573,0.455 0.866,0.67 2.09873,1.54371 4.34658,2.87366 6.71,3.97 1.16159,0.53835 2.34865,1.01992 3.557,1.443 4.1918,1.46475 8.60065,2.2119 13.041,2.21 3.16242,9.9e-4 6.3134,0.37968 9.386,1.128 1.85606,0.45372 3.67682,1.04126 5.448,1.758 4.25257,1.72367 8.16888,4.18177 11.57,7.262 1.50049,1.35719 2.89676,2.82533 4.177,4.392 1.24964,1.52785 2.38029,3.14927 3.382,4.85 0.33,0.56 0.647,1.127 0.948,1.699 0.302,0.572 0.586,1.15 0.856,1.733 0.272,0.583 0.527,1.172 0.767,1.765 0.24,0.593 0.464,1.191 0.677,1.793 0.213,0.602 0.41,1.208 0.586,1.818 0.183,0.61 0.343,1.222 0.5,1.838 0.15,0.616 0.28,1.235 0.409,1.856 0.48039,2.48124 0.72282,5.00268 0.724,7.53 -0.002,2.52694 -0.24458,5.04795 -0.724,7.529 -0.12,0.621 -0.258,1.24 -0.41,1.856 -0.1506,0.61716 -0.31699,1.23036 -0.499,1.839 -0.182,0.61 -0.378,1.215 -0.586,1.817 -0.214,0.602 -0.432,1.2 -0.677,1.793 -0.48426,1.1915 -1.02589,2.35886 -1.623,3.498 -0.30244,0.57379 -0.61853,1.14029 -0.948,1.699 -0.33299,0.56115 -0.67874,1.11463 -1.037,1.66 -0.36338,0.54779 -0.73914,1.08726 -1.127,1.618 -0.79013,1.07294 -1.63317,2.10588 -2.526,3.095 -0.453,0.5 -0.917,0.99 -1.398,1.471 -1.42129,1.42082 -2.94761,2.73254 -4.566,3.924 -1.05632,0.77524 -2.15033,1.49779 -3.278,2.165 -3.86493,2.28312 -8.09347,3.8851 -12.501,4.736 -7.50735,1.45249 -15.27467,0.70056 -22.364,-2.165 -1.19232,-0.48236 -2.35978,-1.02403 -3.498,-1.623 -1.15186,-0.60504 -2.2726,-1.26754 -3.358,-1.985 -1.66182,-1.09618 -3.23772,-2.31738 -4.714,-3.653 -1.00388,-0.90758 -1.96142,-1.86512 -2.869,-2.869 -0.453,-0.5 -0.887,-1.007 -1.308,-1.523 -1.24723,-1.52989 -2.37807,-3.1511 -3.383,-4.85 -0.33045,-0.55778 -0.6459,-1.12432 -0.946,-1.699 -0.89661,-1.70429 -1.66539,-3.47282 -2.3,-5.291 -0.42073,-1.1999 -0.78118,-2.42009 -1.08,-3.656 -0.45199,-1.84354 -0.76949,-3.71747 -0.95,-5.607 -0.12134,-1.25603 -0.18274,-2.51713 -0.184,-3.779 -0.003,-3.16228 -0.38305,-6.31293 -1.133,-9.385 -0.1514,-0.61649 -0.3161,-1.22963 -0.494,-1.839 -0.18253,-0.60972 -0.37791,-1.21552 -0.586,-1.817 -0.214,-0.602 -0.44,-1.2 -0.677,-1.793 -0.24001,-0.59487 -0.49543,-1.1834 -0.766,-1.765 -0.2718,-0.58475 -0.55755,-1.16291 -0.857,-1.734 -0.30269,-0.57333 -0.61878,-1.13948 -0.948,-1.698 -0.33,-0.56 -0.677,-1.113 -1.037,-1.66 -1.4717,-2.22574 -3.16391,-4.29754 -5.051,-6.184 -0.094,-0.095 -0.192,-0.181 -0.285,-0.275 -0.387,-0.38 -0.78,-0.761 -1.181,-1.124 -1.47763,-1.334 -3.0534,-2.55511 -4.714,-3.653 -1.08634,-0.7162 -2.20737,-1.37833 -3.359,-1.984 -2.26931,-1.19227 -4.65003,-2.15923 -7.108,-2.887 -1.21616,-0.35972 -2.44892,-0.66074 -3.694,-0.902 -0.125,-0.027 -0.259,-0.031 -0.388,-0.056 -1.11389,-0.20965 -2.23625,-0.37146 -3.364,-0.485 -6.33157,-0.6078 -12.71635,0.32009 -18.613,2.705 -3.57103,1.44929 -7.08773,3.02902 -10.543,4.736 -4.65028,2.29993 -9.18383,4.82869 -13.584,7.577 -5.58821,3.49496 -10.95204,7.33648 -16.06,11.502 -3.12089,2.54464 -6.14343,5.20758 -9.061,7.983 -3.91687,3.72564 -7.64423,7.64557 -11.168,11.745 -1.73464,2.0223 -3.4185,4.08761 -5.05,6.194 -2.4217,3.12493 -4.72402,6.34057 -6.902,9.64 -1.43746,2.17863 -2.82056,4.39264 -4.148,6.64 -0.66109,1.11732 -1.30781,2.24308 -1.94,3.377 -1.25988,2.25832 -2.46325,4.54769 -3.609,6.866 -0.409,0.82 -0.795,1.647 -1.185,2.474 101.82966,76.40083 244.41529,66.28386 334.627,-23.743 100.06491,-100.0696 100.15669,-262.21974 0.205,-362.172998 l -0.044,0.002 c -99.95146,-99.954188 -262.09786,-99.861064 -362.163999,0.208 -89.998703,90.222648 -100.096077,232.797248 -23.698,334.614998 0.812,-0.384 1.624,-0.766 2.43,-1.165 3.482777,-1.71972 6.899533,-3.57003 10.243,-5.547 4.513005,-2.66463 8.888886,-5.55496 13.111,-8.66 2.137733,-1.56993 4.235081,-3.19413 6.29,-4.871 2.07391,-1.69301 4.10521,-3.43755 6.092,-5.232 2.008515,-1.81371 3.97016,-3.67866 5.883,-5.593 1.912865,-1.91397 3.77745,-3.87558 5.591999,-5.883 1.79656,-1.98556 3.54147,-4.01724 5.233,-6.093 1.67488,-2.05624 3.29871,-4.15355 4.87,-6.29 1.55713,-2.11889 3.06126,-4.27623 4.511,-6.47 2.15489,-3.26214 4.18633,-6.60416 6.09,-10.019 1.88841,-3.38231 3.64833,-6.83477 5.276,-10.35 1.07953,-2.32807 2.10217,-4.6821 3.067,-7.06 0.24,-0.592 0.468,-1.19 0.676,-1.792 0.214,-0.602 0.41,-1.208 0.586,-1.817 0.72309,-2.42924 1.2087,-4.92293 1.45,-7.446 0.12,-1.256 0.183,-2.517 0.183,-3.779 0,-1.26 -0.063,-2.522 -0.183,-3.778 -0.11505,-1.12778 -0.27619,-2.25039 -0.483,-3.365 -0.05,-0.128 -0.05,-0.258 -0.054,-0.386 -0.12,-0.621 -0.258,-1.24 -0.409,-1.856 -0.29872,-1.23594 -0.65917,-2.45613 -1.08,-3.656 -0.21023,-0.60325 -0.43563,-1.20111 -0.676,-1.793 -0.72983,-1.79239 -1.5891,-3.52931 -2.571,-5.197 -0.66475,-1.12921 -1.38738,-2.22333 -2.165,-3.278 -0.79019,-1.07289 -1.63323,-2.10583 -2.526,-3.095 -0.36707,-0.40083 -0.74147,-0.7949 -1.123,-1.182 -0.098,-0.094 -0.183,-0.194 -0.276,-0.289 -1.42056,-1.42161 -2.94694,-2.73338 -4.566,-3.924 -2.61694,-1.92431 -5.46356,-3.51491 -8.474,-4.735 -3.53485,-1.43387 -7.25954,-2.34576 -11.056999,-2.707 -1.255743,-0.1202 -2.516517,-0.18027 -3.778,-0.18 -5.732758,-5.5e-4 -11.396875,-1.24734 -16.6,-3.654 -1.172683,-0.54416 -2.317443,-1.14658 -3.43,-1.805 -1.128569,-0.66542 -2.222643,-1.38768 -3.278,-2.164 -3.243913,-2.38338 -6.106621,-5.24609 -8.49,-8.49 -2.68355,-3.65158 -4.713618,-7.74081 -6,-12.086 -0.181679,-0.60788 -0.346079,-1.2208 -0.493,-1.838 -0.452512,-1.84343 -0.770021,-3.7174 -0.95,-5.607 -0.120665,-1.25606 -0.1814,-2.51716 -0.182,-3.779 0.0026,-3.7999 0.550561,-7.57976 1.627,-11.224 0.726676,-2.45853 1.693327,-4.83965 2.886,-7.109 0.298,-0.572 0.617,-1.138 0.947,-1.698 0.33,-0.56 0.677,-1.114 1.037,-1.66 1.846036,-2.7919 4.037385,-5.3394 6.522,-7.582 0.988826,-0.89398 2.022496,-1.73707 3.097,-2.526 1.577868,-1.16155 3.241273,-2.20218 4.976,-3.113 1.138366,-0.59867 2.305809,-1.14034 3.498,-1.623 1.18258,-0.47812 2.387281,-0.8996 3.61,-1.263 2.42968,-0.71991 4.923286,-1.20316 7.446,-1.443 2.512893,-0.24118 5.043107,-0.24118 7.556,0 3.157829,0.30322 6.267779,0.98477 9.262999,2.03 4.30295,1.50298 8.30995,3.74677 11.84,6.63 2.08714,1.70316 3.99684,3.61286 5.7,5.7 1.24962,1.52786 2.38027,3.14928 3.382,4.85 0.334,0.56 0.647,1.126 0.947,1.698 0.89818,1.70388 1.66701,3.47286 2.3,5.292 0.214,0.601 0.41,1.207 0.587,1.817 0.363,1.21571 0.66603,2.44853 0.908,3.694 0.48005,2.48128 0.72214,5.00271 0.723,7.53 0.003,3.16228 0.38313,6.31292 1.133,9.385 0.15,0.616 0.315,1.23 0.498,1.839 0.183,0.61 0.378,1.215 0.587,1.817 0.209,0.602 0.44,1.2 0.676,1.793 0.97477,2.3987 2.18362,4.69547 3.609,6.857 0.356,0.547 0.736,1.086 1.127,1.618 0.218,0.293 0.448,0.578 0.67,0.866 0.183,0.235 0.356,0.474 0.548,0.706 0.42227,0.51962 0.85843,1.02781 1.308,1.524 0.453,0.498 0.916,0.99 1.397,1.47 3.26758,3.27087 7.08422,5.94246 11.276,7.893 1.16211,0.53871 2.34986,1.02028 3.559,1.443 0.049,0.01 0.053,0.023 0.084,0.027 0.111,-0.233 0.236,-0.462 0.343,-0.697 0.67493,-1.45499 1.31379,-2.92644 1.916,-4.413 1.20006,-2.95494 2.25367,-5.96727 3.157,-9.026 0.4516,-1.52175 0.86506,-3.05457 1.24,-4.597 0.379,-1.54 0.714,-3.086 1.015,-4.64 0.298,-1.553 0.564,-3.112 0.79,-4.675 0.4514,-3.12374 0.75241,-6.26736 0.902,-9.42 0.075,-1.575 0.115,-3.151 0.115,-4.728 0,-1.576 -0.049,-3.153 -0.116,-4.728 -0.14959,-3.15264 -0.4506,-6.29626 -0.902,-9.42 -0.22644,-1.56428 -0.48951,-3.12305 -0.789,-4.675 -0.302,-1.553 -0.639,-3.1 -1.014,-4.64 -0.3753,-1.54243 -0.7891,-3.07524 -1.241,-4.597 -0.45059,-1.52636 -0.93941,-3.04117 -1.466,-4.543 -0.089,-0.254 -0.19,-0.503 -0.28,-0.757 -0.44333,-1.25141 -0.9121,-2.49367 -1.406,-3.726 -2.43193,-5.99844 -5.45341,-11.74061 -9.02,-17.142 -0.365,-0.546 -0.706,-1.1 -1.037,-1.66 -0.33,-0.56 -0.647,-1.126 -0.948,-1.698 -0.30037,-0.57045 -0.5858,-1.14865 -0.856,-1.734 -0.5406,-1.16095 -1.02222,-2.34846 -1.443,-3.558 -0.21303,-0.59992 -0.40877,-1.20584 -0.587,-1.817 -0.17935,-0.60939 -0.34572,-1.22253 -0.499,-1.839 -0.14748,-0.61616 -0.28383,-1.23493 -0.409,-1.856 -0.48039,-2.48124 -0.72282,-5.00268 -0.724,-7.53 0.003,-3.16228 0.3831,-6.31292 1.133,-9.385 0.151,-0.616 0.316,-1.228 0.499,-1.838 0.182,-0.61 0.373,-1.216 0.585,-1.818 0.214,-0.602 0.44,-1.2 0.678,-1.793 0.48429,-1.19148 1.02592,-2.35885 1.623,-3.498 0.302,-0.572 0.616,-1.139 0.947,-1.699 0.334,-0.56 0.677,-1.113 1.037,-1.66 2.21706,-3.35281 4.92954,-6.35019 8.045,-8.89 1.02405,-0.83374 2.08868,-1.61637 3.19,-2.345 1.62498,-1.07151 3.32696,-2.02143 5.092,-2.842 1.7405,-0.8059 3.53723,-1.48435 5.376,-2.03 1.21637,-0.35865 2.44909,-0.65933 3.694,-0.901 2.48134,-0.47947 5.00276,-0.72124 7.53,-0.722 2.52688,0.001 5.0479,0.24315 7.529,0.722 1.87071,0.36289 3.71281,0.86018 5.512,1.488 1.81822,0.63451 3.58676,1.40329 5.291,2.3 3.51795,1.84965 6.73517,4.22194 9.542,7.036 0.484,0.481 0.947,0.972 1.398,1.471 0.454,0.5 0.888,1.007 1.308,1.523 1.2498,1.52795 2.38077,3.14936 3.383,4.85 0.65617,1.11433 1.2582,2.25966 1.804,3.432 0.272,0.583 0.526,1.172 0.767,1.765 0.24,0.594 0.468,1.191 0.676,1.793 0.42084,1.19986 0.78129,2.42006 1.08,3.656 0.152,0.616 0.29,1.235 0.41,1.856 0.48039,2.48124 0.72283,5.00268 0.724,7.53 -0.003,3.16228 -0.38307,6.31293 -1.133,9.385 -0.29947,1.23574 -0.65991,2.4559 -1.08,3.656 -0.21,0.602 -0.432,1.2 -0.677,1.793 -0.72777,1.79315 -1.58676,3.53019 -2.57,5.197 -0.05,0.058 -0.072,0.114 -0.107,0.172 -0.254,0.522 -0.507,1.04 -0.75,1.565 -2.69122,5.80444 -5.02622,11.76749 -6.992,17.856 -0.78149,2.4198 -1.50304,4.85854 -2.164,7.314 -0.99039,3.67153 -1.84795,7.37761 -2.571,11.111 -0.191,1 -0.333,2.01 -0.509,3.013 -0.258,1.488 -0.538,2.973 -0.754,4.467 -0.36,2.501 -0.66,5.01 -0.902,7.522 -0.48124,5.02398 -0.72284,10.06803 -0.724,15.115 0.002,5.04632 0.24349,10.0897 0.725,15.113 m -0.001,0.001 c 0.24,2.513 0.542,5.02 0.903,7.522 0.28,1.952 0.63,3.895 0.985,5.837 0.049,-0.022 0.075,-0.036 0.11,-0.054 3.48261,-1.72068 6.89966,-3.57097 10.244,-5.547 3.37795,-1.99455 6.67931,-4.11607 9.897,-6.36 4.35323,-3.03324 8.55026,-6.28473 12.575,-9.742 2.04116,-1.7541 4.03812,-3.559 5.989,-5.413 3.91815,-3.72468 7.64589,-7.64466 11.169,-11.745 2.59692,-3.0262 5.07901,-6.14908 7.441,-9.362 1.55674,-2.11928 3.06054,-4.27695 4.51,-6.471 1.43803,-2.17867 2.82179,-4.39269 4.15,-6.64 2.63161,-4.4531 5.03992,-9.03444 7.216,-13.727 1.07956,-2.32806 2.10219,-4.68209 3.067,-7.06 0.483,-1.186 0.947,-2.377 1.398,-3.573 0.45169,-1.19391 0.88773,-2.39368 1.308,-3.599 0.187,-0.532 0.356,-1.068 0.538,-1.602 0,-0.072 0.05,-0.147 0.05,-0.22 0.15,-0.616 0.315,-1.228 0.498,-1.838 0.182,-0.61 0.378,-1.215 0.587,-1.817 0.213,-0.602 0.431,-1.2 0.676,-1.794 0.72968,-1.79228 1.58861,-3.52919 2.57,-5.197 0.334,-0.56 0.678,-1.113 1.039,-1.66 0.355,-0.546 0.736,-1.085 1.127,-1.617 0.39276,-0.53387 0.79855,-1.05802 1.217,-1.572 0.419,-0.516 0.858,-1.025 1.309,-1.524 0.453,-0.5 0.916,-0.99 1.397,-1.47 0.48,-0.482 0.972,-0.948 1.472,-1.399 0.98783,-0.89402 2.02085,-1.73679 3.095,-2.525 1.05543,-0.77652 2.1495,-1.49911 3.278,-2.165 2.2168,-1.31127 4.55827,-2.39927 6.99,-3.248 1.79877,-0.62805 3.64057,-1.12535 5.511,-1.488 5.60182,-1.08385 11.37163,-0.94536 16.915,0.406 1.23489,0.30257 2.45462,0.66398 3.655,1.083 3.04965,1.06421 5.95524,2.50323 8.65,4.284 1.10248,0.72732 2.1672,1.51033 3.19,2.346 1.04324,0.85064 2.04254,1.75381 2.994,2.706 0.111,0.11 0.214,0.223 0.316,0.334 0.111,0.109 0.222,0.207 0.334,0.316 0.483,0.481 0.947,0.972 1.397,1.47 0.454,0.5 0.888,1.008 1.308,1.524 1.25007,1.52798 2.38137,3.14938 3.384,4.85 0.333,0.56 0.646,1.126 0.947,1.699 0.302,0.572 0.586,1.15 0.856,1.733 0.272,0.583 0.527,1.172 0.767,1.765 0.24,0.593 0.464,1.191 0.677,1.793 0.213,0.602 0.409,1.208 0.586,1.818 0.183,0.61 0.347,1.222 0.494,1.838 0.151,0.616 0.28,1.235 0.41,1.856 0.48004,2.48128 0.72214,5.00271 0.723,7.53 -10e-4,2.52698 -0.24377,5.04807 -0.724,7.529 -0.24675,1.2443 -0.54804,2.47715 -0.903,3.695 -0.183,0.609 -0.379,1.215 -0.587,1.817 -0.213,0.602 -0.44,1.2 -0.676,1.793 -0.24,0.593 -0.494,1.182 -0.767,1.765 -0.546,1.17224 -1.14803,2.31756 -1.804,3.432 -1.00337,1.69991 -2.13428,3.32123 -3.383,4.85 -0.42354,0.51823 -0.85967,1.02605 -1.308,1.523 -0.454,0.5 -0.917,0.99 -1.398,1.471 -2.34754,2.3522 -4.98311,4.3981 -7.844,6.089 -2.21794,1.30883 -4.55921,2.39639 -6.99,3.247 -1.20006,0.42004 -2.41983,0.78147 -3.655,1.083 -0.071,0.022 -0.147,0.031 -0.223,0.05 -0.533,0.18 -1.07,0.353 -1.602,0.539 -6.05178,2.11482 -11.96764,4.60019 -17.714,7.442 -2.31838,1.14525 -4.60776,2.34829 -6.866,3.608 -6.86797,3.83195 -13.43875,8.1738 -19.657,12.989 -2.10696,1.63106 -4.17197,3.31561 -6.193,5.052 -2.04236,1.75312 -4.03967,3.55804 -5.99,5.413 -5.85063,5.56239 -11.27272,11.55878 -16.22,17.938 -2.41998,3.12574 -4.72161,6.34134 -6.9,9.64 -2.86601,4.34376 -5.51493,8.82693 -7.937,13.433 -0.6,1.145 -1.188,2.295 -1.759,3.45 -0.049,0.036 -0.049,0.073 -0.049,0.11 1.942,0.355 3.885,0.704 5.837,0.986 2.5,0.36 5.009,0.661 7.522,0.902"
     id="path2"
     inkscape:connector-curvature="0"
     style="fill:#ff0000"
     sodipodi:nodetypes="cccccccccccccccccccccccccccccccccccccccccccccccccccccccccccccccccccccssccccccccccccccccccccccccccccccccccccccccccccccccccccccccccccccccccccccccccccccccscccccccccccccccccccccccccscccccccccccccccccccscccccccccccccccccscccccccccccccccccccccccccccccccccccccccccccccccccccccccccccccccccccccccccccccccccccccccccccccccccccccsscccccccccccccccccccccccccccccc" />
</svg>