<?xml version="1.0" encoding="UTF-8" standalone="no"?>
<svg
   xmlns:dc="http://purl.org/dc/elements/1.1/"
   xmlns:cc="http://creativecommons.org/ns#"
   xmlns:rdf="http://www.w3.org/1999/02/22-rdf-syntax-ns#"
   xmlns:svg="http://www.w3.org/2000/svg"
   xmlns="http://www.w3.org/2000/svg"
   xmlns:sodipodi="http://sodipodi.sourceforge.net/DTD/sodipodi-0.dtd"
   xmlns:inkscape="http://www.inkscape.org/namespaces/inkscape"
   viewBox="0 0 242.80319 68.315344"
   version="1.1"
   id="svg40"
   sodipodi:docname="logo-no-icon.svg"
   inkscape:version="0.92.4 (unknown)"
   width="242.80319"
   height="68.315346">
  <metadata
     id="metadata44">
    <rdf:RDF>
      <cc:Work
         rdf:about="">
        <dc:format>image/svg+xml</dc:format>
        <dc:type
           rdf:resource="http://purl.org/dc/dcmitype/StillImage" />
        <dc:title>Logo-Red_Hat-Distributed-Ci-A-Standard-RGB</dc:title>
      </cc:Work>
    </rdf:RDF>
  </metadata>
  <sodipodi:namedview
     pagecolor="#ffffff"
     bordercolor="#666666"
     borderopacity="1"
     objecttolerance="10"
     gridtolerance="10"
     guidetolerance="10"
     inkscape:pageopacity="0"
     inkscape:pageshadow="2"
     inkscape:window-width="1920"
     inkscape:window-height="1016"
     id="namedview42"
     showgrid="false"
     inkscape:zoom="0.64629907"
     inkscape:cx="119.11566"
     inkscape:cy="-98.670721"
     inkscape:window-x="1920"
     inkscape:window-y="27"
     inkscape:window-maximized="1"
     inkscape:current-layer="svg40"
     fit-margin-top="0"
     fit-margin-left="0"
     fit-margin-right="0"
     fit-margin-bottom="0" />
  <defs
     id="defs4">
    <style
       id="style2">.a{fill:#e00;}</style>
  </defs>
  <title
     id="title6">Logo-Red_Hat-Distributed-Ci-A-Standard-RGB</title>
  <g
     aria-label="Distributed CI"
     style="font-style:normal;font-variant:normal;font-weight:normal;font-stretch:normal;font-size:39.49323654px;line-height:1.25;font-family:'Red Hat Display';-inkscape-font-specification:'Red Hat Display';letter-spacing:0px;word-spacing:0px;writing-mode:lr-tb;fill:#ffffff;stroke-width:0.70523643"
     id="text853">
    <path
       d="M 1.0490418e-7,67.88092 H 9.7548295 c 8.3725665,0 14.5730045,-5.884492 14.5730045,-13.783139 0,-7.977634 -6.239932,-13.862126 -14.5730045,-13.862126 H 1.0490418e-7 Z M 9.833816,43.948019 c 5.766013,0 10.228748,4.383749 10.228748,10.149762 0,5.687026 -4.462735,10.070775 -10.228748,10.070775 H 4.1467899 V 43.948019 Z"
       style="font-style:normal;font-variant:normal;font-weight:500;font-stretch:normal;font-family:'Red Hat Display';-inkscape-font-specification:'Red Hat Display Medium';fill:#ffffff;stroke-width:0.70523643"
       id="path819" />
    <path
       d="m 30.272184,44.540418 c 1.34277,0 2.44858,-1.105811 2.44858,-2.448581 0,-1.34277 -1.10581,-2.448581 -2.44858,-2.448581 -1.34277,0 -2.409088,1.105811 -2.409088,2.448581 0,1.34277 1.066318,2.448581 2.409088,2.448581 z m 1.974661,3.238445 H 28.297522 V 67.88092 h 3.949323 z"
       style="font-style:normal;font-variant:normal;font-weight:500;font-stretch:normal;font-family:'Red Hat Display';-inkscape-font-specification:'Red Hat Display Medium';fill:#ffffff;stroke-width:0.70523643"
       id="path821" />
    <path
       d="m 35.040993,65.274367 c 2.211621,1.935168 5.331587,2.961993 8.806992,2.961993 4.778682,0 8.412059,-2.725034 8.412059,-6.318918 0,-3.119966 -2.093141,-5.015641 -6.081958,-5.60804 L 42.544708,55.79599 c -2.369594,-0.355439 -3.317432,-1.066317 -3.317432,-2.527567 0,-1.619223 1.619223,-2.725033 4.02831,-2.725033 2.132635,0 4.14679,0.631891 6.358412,2.093141 l 2.014155,-2.606554 c -2.527568,-1.737702 -5.134121,-2.56706 -8.096114,-2.56706 -4.699695,0 -7.859154,2.448581 -7.859154,6.081959 0,3.119965 2.014155,4.976147 6.002972,5.568546 l 3.633378,0.513412 c 2.211621,0.315946 3.238445,1.145304 3.238445,2.56706 0,1.777196 -1.974662,3.001486 -4.818175,3.001486 -2.251114,0 -4.462735,-0.868851 -6.555877,-2.527567 z"
       style="font-style:normal;font-variant:normal;font-weight:500;font-stretch:normal;font-family:'Red Hat Display';-inkscape-font-specification:'Red Hat Display Medium';fill:#ffffff;stroke-width:0.70523643"
       id="path823" />
    <path
       d="m 57.51573,62.904773 c 0,3.475404 2.093141,5.331587 6.002972,5.331587 1.184797,0 2.68554,-0.23696 3.751857,-0.592399 v -3.317432 c -0.987331,0.355439 -1.777196,0.473919 -2.883006,0.473919 -2.132635,0 -2.961993,-0.750372 -2.961993,-2.80402 V 51.096295 h 5.923986 V 47.778863 H 61.42556 v -6.081958 l -3.90983,0.947837 v 5.134121 h -4.26527 v 3.317432 h 4.26527 z"
       style="font-style:normal;font-variant:normal;font-weight:500;font-stretch:normal;font-family:'Red Hat Display';-inkscape-font-specification:'Red Hat Display Medium';fill:#ffffff;stroke-width:0.70523643"
       id="path825" />
    <path
       d="m 70.259083,67.88092 h 3.949324 v -13.4277 c 1.026824,-2.409087 2.883006,-3.672871 5.213107,-3.672871 0.789865,0 1.579729,0.157973 2.330101,0.434426 v -3.554392 c -0.592399,-0.236959 -1.145304,-0.315946 -2.014155,-0.315946 -2.369594,0 -4.304763,1.066318 -5.529053,3.001486 v -2.56706 h -3.949324 z"
       style="font-style:normal;font-variant:normal;font-weight:500;font-stretch:normal;font-family:'Red Hat Display';-inkscape-font-specification:'Red Hat Display Medium';fill:#ffffff;stroke-width:0.70523643"
       id="path827" />
    <path
       d="m 86.889438,44.540418 c 1.34277,0 2.448581,-1.105811 2.448581,-2.448581 0,-1.34277 -1.105811,-2.448581 -2.448581,-2.448581 -1.34277,0 -2.409088,1.105811 -2.409088,2.448581 0,1.34277 1.066318,2.448581 2.409088,2.448581 z M 88.8641,47.778863 H 84.914776 V 67.88092 H 88.8641 Z"
       style="font-style:normal;font-variant:normal;font-weight:500;font-stretch:normal;font-family:'Red Hat Display';-inkscape-font-specification:'Red Hat Display Medium';fill:#ffffff;stroke-width:0.70523643"
       id="path829" />
    <path
       d="m 113.77447,57.810145 c 0,-5.805506 -4.46274,-10.347228 -10.14977,-10.347228 -2.3301,0 -4.462732,0.789865 -6.121448,2.211621 V 39.366804 l -3.949323,0.868851 V 67.88092 h 3.90983 v -1.698209 c 1.737702,1.303277 3.830841,2.014155 6.081961,2.014155 5.76601,0 10.22875,-4.541722 10.22875,-10.386721 z m -10.66318,-6.911316 c 3.83085,0 6.79284,3.001486 6.79284,6.950809 0,3.949324 -2.9225,6.911317 -6.79284,6.911317 -2.25111,0 -4.344254,-0.908345 -5.608038,-2.369594 v -9.083445 c 1.303277,-1.540236 3.317428,-2.409087 5.608038,-2.409087 z"
       style="font-style:normal;font-variant:normal;font-weight:500;font-stretch:normal;font-family:'Red Hat Display';-inkscape-font-specification:'Red Hat Display Medium';fill:#ffffff;stroke-width:0.70523643"
       id="path831" />
    <path
       d="m 121.41332,47.778863 h -3.94933 v 12.598342 c 0,4.660202 3.19896,7.898648 7.81966,7.898648 2.44859,0 4.46274,-0.829358 6.04247,-2.409088 v 2.014155 h 3.94932 V 47.778863 h -3.94932 v 14.415031 c -1.10581,1.69821 -2.80402,2.646047 -4.93665,2.646047 -3.04098,0 -4.97615,-1.974662 -4.97615,-5.134121 z"
       style="font-style:normal;font-variant:normal;font-weight:500;font-stretch:normal;font-family:'Red Hat Display';-inkscape-font-specification:'Red Hat Display Medium';fill:#ffffff;stroke-width:0.70523643"
       id="path833" />
    <path
       d="m 142.51874,62.904773 c 0,3.475404 2.09314,5.331587 6.00298,5.331587 1.18479,0 2.68554,-0.23696 3.75185,-0.592399 v -3.317432 c -0.98733,0.355439 -1.77719,0.473919 -2.883,0.473919 -2.13264,0 -2.962,-0.750372 -2.962,-2.80402 V 51.096295 h 5.92399 v -3.317432 h -5.92399 v -6.081958 l -3.90983,0.947837 v 5.134121 h -4.26527 v 3.317432 h 4.26527 z"
       style="font-style:normal;font-variant:normal;font-weight:500;font-stretch:normal;font-family:'Red Hat Display';-inkscape-font-specification:'Red Hat Display Medium';fill:#ffffff;stroke-width:0.70523643"
       id="path835" />
    <path
       d="m 172.21581,65.590313 -2.52757,-2.488074 c -1.26378,1.10581 -3.11997,1.777195 -5.09463,1.777195 -3.4754,0 -6.23993,-2.409087 -6.79283,-5.766012 h 15.87628 v -1.145304 c 0,-5.923985 -4.18629,-10.505201 -9.71534,-10.505201 -5.64753,0 -10.07077,4.541722 -10.07077,10.347228 0,5.884492 4.6207,10.426215 10.54469,10.426215 3.00149,0 5.45007,-0.829358 7.78017,-2.646047 z m -8.33308,-14.809964 c 2.9225,0 5.2921,2.290608 5.8845,5.37108 h -11.92696 c 0.5924,-3.198952 3.00149,-5.37108 6.04246,-5.37108 z"
       style="font-style:normal;font-variant:normal;font-weight:500;font-stretch:normal;font-family:'Red Hat Display';-inkscape-font-specification:'Red Hat Display Medium';fill:#ffffff;stroke-width:0.70523643"
       id="path837" />
    <path
       d="m 192.87942,67.88092 h 3.90983 V 39.366804 l -3.94933,0.868851 v 9.201924 c -1.7377,-1.263784 -3.83084,-1.974662 -6.04246,-1.974662 -5.76601,0 -10.22875,4.541722 -10.22875,10.347228 0,5.844999 4.46274,10.386721 10.14976,10.386721 2.3301,0 4.46274,-0.789864 6.16095,-2.211621 z M 180.43905,57.770652 c 0,-3.949324 2.96199,-6.911317 6.83233,-6.911317 2.21162,0 4.26527,0.868852 5.56854,2.369595 v 9.122937 c -1.34277,1.540237 -3.31743,2.409088 -5.56854,2.409088 -3.87034,0 -6.83233,-3.040979 -6.83233,-6.990303 z"
       style="font-style:normal;font-variant:normal;font-weight:500;font-stretch:normal;font-family:'Red Hat Display';-inkscape-font-specification:'Red Hat Display Medium';fill:#ffffff;stroke-width:0.70523643"
       id="path839" />
    <path
       d="m 223.6212,64.484502 c -5.92399,0 -10.38672,-4.541722 -10.38672,-10.426214 0,-5.923986 4.42324,-10.426215 10.26824,-10.426215 3.19895,0 6.27942,1.34277 8.37256,3.791351 l 2.76453,-2.843513 c -2.60655,-2.961993 -6.79284,-4.778682 -11.13709,-4.778682 -8.1751,0 -14.49402,6.239932 -14.49402,14.257059 0,7.977633 6.31892,14.257058 14.49402,14.257058 4.22577,0 8.33307,-1.816689 11.0581,-4.778682 l -2.72503,-2.764526 c -2.01415,2.369594 -5.01564,3.712364 -8.21459,3.712364 z"
       style="font-style:normal;font-variant:normal;font-weight:500;font-stretch:normal;font-family:'Red Hat Display';-inkscape-font-specification:'Red Hat Display Medium';fill:#ffffff;stroke-width:0.70523643"
       id="path841" />
    <path
       d="m 238.6564,67.88092 h 4.14679 V 40.235655 h -4.14679 z"
       style="font-style:normal;font-variant:normal;font-weight:500;font-stretch:normal;font-family:'Red Hat Display';-inkscape-font-specification:'Red Hat Display Medium';fill:#ffffff;stroke-width:0.70523643"
       id="path843" />
  </g>
  <path
     d="m 130.12961,22.081536 c 0,4.349725 2.61569,6.464224 7.38612,6.464224 a 19.063433,19.063433 0 0 0 4.34972,-0.614593 v -5.041144 a 9.0872323,9.0872323 0 0 1 -2.80958,0.424359 c -1.96451,0 -2.69251,-0.614593 -2.69251,-2.462038 v -7.733663 h 5.69233 V 7.92389 h -5.69233 V 1.33894 l -6.21912,1.346252 V 7.92389 h -4.12657 v 5.194791 h 4.1156 z m -19.38903,0.11706 c 0,-1.346252 1.34992,-2.001092 3.38759,-2.001092 a 15.774616,15.774616 0 0 1 3.69489,0.460946 v 2.615692 a 7.8690169,7.8690169 0 0 1 -3.8778,0.962133 c -1.99744,0 -3.19371,-0.768246 -3.19371,-2.037679 m 1.90232,6.42399 c 2.19499,0 3.96561,-0.460946 5.61917,-1.576732 v 1.232853 h 6.15327 V 15.233186 c 0,-4.960664 -3.34369,-7.682443 -8.92261,-7.682443 -3.11688,0 -6.19717,0.73166 -9.5116,2.231566 l 2.23157,4.580198 c 2.38521,-1.002373 4.38996,-1.616973 6.15693,-1.616973 2.56081,0 3.88512,0.99872 3.88512,3.040052 v 0.998719 a 18.119591,18.119591 0 0 0 -4.61679,-0.578013 c -5.23503,0 -8.38849,2.194986 -8.38849,6.120351 0,3.577818 2.84616,6.306917 7.38612,6.306917 M 78.829176,28.28968 h 6.61787 V 17.735465 h 11.08101 v 10.543242 h 6.617884 V 1.346253 h -6.603254 v 10.349348 h -11.081 V 1.346253 h -6.61788 z M 53.627106,18.083005 c 0,-2.926645 2.30838,-5.158211 5.34844,-5.158211 a 6.2996032,6.2996032 0 0 1 4.30949,1.580386 v 7.100777 a 5.9849889,5.9849889 0 0 1 -4.30949,1.616965 c -2.99981,0 -5.34844,-2.231565 -5.34844,-5.15455 m 9.73475,10.195701 h 6.15693 V 0 l -6.21912,1.346253 v 7.656836 a 10.353006,10.353006 0 0 0 -5.1948,-1.346259 c -5.92279,0 -10.57982,4.576544 -10.57982,10.426175 a 10.334715,10.334715 0 0 0 10.37496,10.473728 9.1896649,9.1896649 0 0 0 5.46185,-1.766959 z M 35.123386,12.643101 c 1.96085,0 3.61441,1.269433 4.26925,3.230285 h -8.49093 c 0.6146,-2.037672 2.15474,-3.230285 4.23266,-3.230285 m -10.513974,5.476484 c 0,5.926457 4.847254,10.543241 11.077354,10.543241 3.42417,0 5.92645,-0.925552 8.50556,-3.080291 l -4.11925,-3.658305 c -0.96214,1.002373 -2.38522,1.540146 -4.07536,1.540146 a 5.2643026,5.2643026 0 0 1 -5.00456,-3.230285 h 14.50519 v -1.536493 c 0,-6.464224 -4.34608,-11.117588 -10.27253,-11.117588 A 10.451781,10.451781 0 0 0 24.627712,18.119585 M 13.886924,7.001997 c 2.194979,0 3.424172,1.382839 3.424172,3.040052 0,1.657212 -1.232846,3.040052 -3.424172,3.040052 H 7.3458743 V 7.001997 Z M 0.71701733,28.278707 H 7.3348943 v -9.811582 h 5.0374907 l 5.081384,9.811582 h 7.386123 L 18.913435,17.504992 a 8.1470481,8.1470481 0 0 0 5.077731,-7.58001 c 0,-4.847258 -3.808298,-8.578729 -9.511596,-8.578729 H 0.72799733 Z"
     id="path38"
     inkscape:connector-curvature="0"
     style="fill:#ffffff;stroke-width:0.3658306" />
</svg>
