<svg xmlns="http://www.w3.org/2000/svg" version="1.1" id="svg40" width="197.562" height="50"><defs id="defs4"><style id="style2"></style></defs><g id="g845" transform="scale(.625)"><g id="text853" style="line-height:1.25;-inkscape-font-specification:'Red Hat Display'" aria-label="Distributed CI" font-style="normal" font-variant="normal" font-weight="500" font-stretch="normal" font-size="39.493" font-family="Red Hat Display" letter-spacing="0" word-spacing="0" writing-mode="lr-tb" fill="#fff" stroke-width=".705"><path id="path817" style="-inkscape-font-specification:'Red Hat Display Medium'" d="M73.296 79.566h9.755c8.372 0 14.573-5.885 14.573-13.784 0-7.977-6.24-13.862-14.573-13.862h-9.755zm9.834-23.933c5.766 0 10.229 4.383 10.229 10.15 0 5.686-4.463 10.07-10.23 10.07h-5.686v-20.22z"/><path id="path819" style="-inkscape-font-specification:'Red Hat Display Medium'" d="M103.568 56.225a2.46 2.46 0 002.449-2.448 2.46 2.46 0 00-2.449-2.45c-1.343 0-2.409 1.107-2.409 2.45 0 1.342 1.066 2.448 2.41 2.448zm1.975 3.239h-3.95v20.102h3.95z"/><path id="path821" style="-inkscape-font-specification:'Red Hat Display Medium'" d="M108.337 76.959c2.212 1.935 5.332 2.962 8.807 2.962 4.779 0 8.412-2.725 8.412-6.319 0-3.12-2.093-5.016-6.082-5.608l-3.633-.513c-2.37-.356-3.318-1.067-3.318-2.528 0-1.62 1.62-2.725 4.029-2.725 2.132 0 4.146.632 6.358 2.093l2.014-2.606c-2.527-1.738-5.134-2.567-8.096-2.567-4.7 0-7.86 2.448-7.86 6.082 0 3.12 2.015 4.976 6.004 5.568l3.633.514c2.212.315 3.239 1.145 3.239 2.567 0 1.777-1.975 3.001-4.818 3.001-2.252 0-4.463-.869-6.556-2.528z"/><path id="path823" style="-inkscape-font-specification:'Red Hat Display Medium'" d="M130.812 74.59c0 3.475 2.093 5.331 6.003 5.331 1.184 0 2.685-.237 3.752-.592V76.01c-.988.356-1.778.474-2.883.474-2.133 0-2.962-.75-2.962-2.804v-10.9h5.924v-3.317h-5.924v-6.082l-3.91.947v5.135h-4.266v3.317h4.266z"/><path id="path825" style="-inkscape-font-specification:'Red Hat Display Medium'" d="M143.555 79.566h3.95V66.138c1.026-2.41 2.882-3.673 5.213-3.673.79 0 1.58.158 2.33.434v-3.554c-.593-.237-1.146-.316-2.015-.316-2.37 0-4.304 1.066-5.529 3.002v-2.567h-3.949z"/><path id="path827" style="-inkscape-font-specification:'Red Hat Display Medium'" d="M160.185 56.225a2.46 2.46 0 002.449-2.448 2.46 2.46 0 00-2.449-2.45c-1.342 0-2.409 1.107-2.409 2.45 0 1.342 1.067 2.448 2.41 2.448zm1.975 3.239h-3.95v20.102h3.95z"/><path id="path829" style="-inkscape-font-specification:'Red Hat Display Medium'" d="M187.07 69.495c0-5.806-4.462-10.347-10.15-10.347-2.33 0-4.462.79-6.12 2.211V51.051l-3.95.87v27.645h3.91v-1.699a10.044 10.044 0 006.082 2.015c5.766 0 10.228-4.542 10.228-10.387zm-10.663-6.912c3.831 0 6.793 3.002 6.793 6.951 0 3.95-2.922 6.912-6.793 6.912-2.25 0-4.344-.909-5.608-2.37v-9.083c1.304-1.54 3.318-2.41 5.608-2.41z"/><path id="path831" style="-inkscape-font-specification:'Red Hat Display Medium'" d="M194.71 59.464h-3.95v12.598c0 4.66 3.199 7.899 7.82 7.899 2.448 0 4.462-.83 6.042-2.41v2.015h3.95V59.464h-3.95v14.415c-1.106 1.698-2.804 2.646-4.937 2.646-3.04 0-4.976-1.975-4.976-5.135z"/><path id="path833" style="-inkscape-font-specification:'Red Hat Display Medium'" d="M215.815 74.59c0 3.475 2.093 5.331 6.003 5.331 1.185 0 2.685-.237 3.752-.592V76.01c-.988.356-1.778.474-2.883.474-2.133 0-2.962-.75-2.962-2.804v-10.9h5.924v-3.317h-5.924v-6.082l-3.91.947v5.135h-4.266v3.317h4.266z"/><path id="path835" style="-inkscape-font-specification:'Red Hat Display Medium'" d="M245.512 77.275l-2.528-2.488c-1.264 1.106-3.12 1.777-5.094 1.777-3.476 0-6.24-2.409-6.793-5.766h15.876v-1.145c0-5.924-4.186-10.505-9.715-10.505-5.648 0-10.071 4.541-10.071 10.347 0 5.884 4.62 10.426 10.545 10.426 3.001 0 5.45-.83 7.78-2.646zm-8.333-14.81c2.922 0 5.292 2.29 5.884 5.371h-11.927c.593-3.199 3.002-5.371 6.043-5.371z"/><path id="path837" style="-inkscape-font-specification:'Red Hat Display Medium'" d="M266.175 79.566h3.91V51.05l-3.95.87v9.201a10.242 10.242 0 00-6.042-1.974c-5.766 0-10.228 4.541-10.228 10.347 0 5.845 4.462 10.387 10.15 10.387 2.33 0 4.462-.79 6.16-2.212zm-12.44-10.11c0-3.95 2.962-6.912 6.832-6.912 2.212 0 4.266.869 5.569 2.37v9.123c-1.343 1.54-3.318 2.409-5.569 2.409-3.87 0-6.832-3.041-6.832-6.99z"/><path id="path839" style="-inkscape-font-specification:'Red Hat Display Medium'" d="M296.917 76.17c-5.924 0-10.387-4.543-10.387-10.427 0-5.924 4.424-10.426 10.269-10.426 3.199 0 6.28 1.343 8.372 3.791l2.765-2.843c-2.607-2.962-6.793-4.78-11.137-4.78-8.175 0-14.494 6.24-14.494 14.258 0 7.978 6.319 14.257 14.494 14.257 4.225 0 8.333-1.817 11.058-4.779l-2.725-2.764c-2.014 2.37-5.016 3.712-8.215 3.712z"/><path id="path841" style="-inkscape-font-specification:'Red Hat Display Medium'" d="M311.952 79.566h4.147V51.92h-4.147z"/></g><path id="path38" d="M203.426 33.766c0 4.35 2.615 6.464 7.386 6.464a19.063 19.063 0 004.35-.614v-5.041a9.087 9.087 0 01-2.81.424c-1.965 0-2.693-.615-2.693-2.462v-7.734h5.693V19.61h-5.693v-6.585l-6.219 1.346v5.239h-4.126v5.194h4.115zm-19.39.117c0-1.346 1.35-2 3.388-2a15.775 15.775 0 013.695.46v2.616a7.869 7.869 0 01-3.878.962c-1.997 0-3.193-.768-3.193-2.038m1.902 6.424c2.195 0 3.965-.46 5.619-1.576v1.232h6.153V26.918c0-4.96-3.343-7.683-8.922-7.683-3.117 0-6.197.732-9.512 2.232l2.232 4.58c2.385-1.002 4.39-1.617 6.157-1.617 2.56 0 3.885.999 3.885 3.04v.999a18.12 18.12 0 00-4.617-.578c-5.235 0-8.389 2.195-8.389 6.12 0 3.578 2.847 6.307 7.387 6.307m-33.818-.344h6.618V29.42h11.081v10.543h6.618V13.031h-6.603v10.35h-11.081V13.03h-6.618zm-25.202-10.206c0-2.927 2.308-5.159 5.349-5.159a6.3 6.3 0 014.309 1.58v7.102a5.985 5.985 0 01-4.31 1.617c-3 0-5.348-2.232-5.348-5.155m9.735 10.196h6.157V11.685l-6.22 1.346v7.657a10.353 10.353 0 00-5.194-1.346c-5.923 0-10.58 4.576-10.58 10.426a10.335 10.335 0 0010.375 10.473 9.19 9.19 0 005.462-1.767zm-28.239-15.621c1.961 0 3.615 1.27 4.27 3.23h-8.491c.614-2.038 2.154-3.23 4.232-3.23m-10.514 5.476c0 5.927 4.848 10.543 11.078 10.543 3.424 0 5.926-.925 8.505-3.08l-4.119-3.658c-.962 1.002-2.385 1.54-4.075 1.54a5.264 5.264 0 01-5.005-3.23h14.505v-1.537c0-6.464-4.346-11.117-10.272-11.117a10.452 10.452 0 00-10.61 10.54m-10.74-11.118c2.195 0 3.424 1.383 3.424 3.04s-1.233 3.04-3.424 3.04h-6.541v-6.08zm-13.17 21.276h6.618v-9.811h5.037l5.082 9.811h7.386L92.209 29.19a8.147 8.147 0 005.078-7.58c0-4.848-3.808-8.58-9.511-8.58H74.024z" fill="#fff" stroke-width=".366"/><path id="path2" d="M26.419 31.623a16.337 16.337 0 003.884-.093c.154-.022.306-.051.46-.078.103-.018.206-.032.31-.052a16.272 16.272 0 003.732-1.207l.161-.077.018-.01a4.029 4.029 0 011.672-.544 4.084 4.084 0 011.731.21 4.027 4.027 0 011.805 1.268 3.868 3.868 0 01.348.499 3.902 3.902 0 01.394.906 3.926 3.926 0 01.15.766 4.092 4.092 0 01-.15 1.544 4.019 4.019 0 01-1.02 1.713 4.086 4.086 0 01-.983.724 4.052 4.052 0 01-2.66.39 4.035 4.035 0 01-1.458-.594 10.043 10.043 0 00-2.147-1.073l-.077-.03a10.198 10.198 0 00-7.624.371l-.072.036a5.118 5.118 0 00.075.193 4.107 4.107 0 00.612 1.034 3.837 3.837 0 00.278.308c.098.098.201.191.308.279.024.02.049.037.073.056l.09.07a4.02 4.02 0 001.056.556c.43.15.884.228 1.341.227a4.087 4.087 0 011.527.297 4.027 4.027 0 011.62 1.2 3.973 3.973 0 01.682 1.218 4.643 4.643 0 01.154.567 4.085 4.085 0 01-.154 2.116 3.919 3.919 0 01-.334.72 4.383 4.383 0 01-.223.337 4.128 4.128 0 01-1.21 1.096 4.075 4.075 0 01-4.293-.107 4.033 4.033 0 01-.915-.827 4.067 4.067 0 01-.682-1.219 4.037 4.037 0 01-.228-1.342 4.072 4.072 0 00-.669-2.231 4.087 4.087 0 00-.52-.637l-.029-.028a4.089 4.089 0 00-.952-.696 4.036 4.036 0 00-1.111-.39l-.04-.005a4.07 4.07 0 00-2.261.228 16.22 16.22 0 00-2.483 1.267 16.242 16.242 0 00-2.584 2.005 16.617 16.617 0 00-1.669 1.846 16.087 16.087 0 00-1.708 2.729c-.042.084-.082.169-.122.254 10.477 7.86 25.148 6.82 34.43-2.443 10.295-10.296 10.305-26.98.02-37.264h-.004C34.684-2.576 18.001-2.567 7.705 7.729c-9.26 9.283-10.298 23.953-2.438 34.429l.25-.12a15.917 15.917 0 002.403-1.462A16.048 16.048 0 009.8 38.96a16.654 16.654 0 001.614-1.88 16.291 16.291 0 001.09-1.696 15.822 15.822 0 00.929-1.976 4.03 4.03 0 00.16-2.077c-.005-.012-.005-.026-.006-.04a3.946 3.946 0 00-.153-.566 3.922 3.922 0 00-.334-.72 3.917 3.917 0 00-.598-.777l-.029-.03a4.087 4.087 0 00-1.341-.89 4.046 4.046 0 00-1.527-.297 4.07 4.07 0 01-2.398-.785 4.086 4.086 0 01-.873-.873 4.033 4.033 0 01-.785-2.399 4.087 4.087 0 01.562-2.06 4.018 4.018 0 01.778-.952 4.042 4.042 0 013.105-1.025 4.023 4.023 0 012.758 1.477 3.973 3.973 0 01.682 1.219 3.982 3.982 0 01.228 1.342 4.087 4.087 0 00.298 1.526 4.054 4.054 0 00.487.872l.069.089.056.072a3.838 3.838 0 00.279.308 4.063 4.063 0 001.526.961l.009.003.035-.072a10.017 10.017 0 00.754-2.333 10.133 10.133 0 00.081-3.392 10.43 10.43 0 00-.313-1.432 9.778 9.778 0 00-.15-.467l-.03-.078a10.061 10.061 0 00-1.073-2.147 3.639 3.639 0 01-.204-.346 3.795 3.795 0 01-.236-.544 3.414 3.414 0 01-.112-.376 4.086 4.086 0 01.112-2.307 4.105 4.105 0 01.44-.89 4.093 4.093 0 011.68-1.45 4.075 4.075 0 012.483-.3 4.08 4.08 0 011.111.389 4.046 4.046 0 011.26 1.032 3.979 3.979 0 01.683 1.218 3.917 3.917 0 01.153.567 4.086 4.086 0 01-.223 2.301 4.05 4.05 0 01-.264.535c-.005.006-.008.012-.011.018l-.077.16a16.203 16.203 0 00-1.207 3.734c-.02.102-.034.206-.052.31-.027.153-.056.305-.078.46a16.619 16.619 0 00-.167 2.328c0 .52.025 1.038.074 1.555m0 0c.025.259.056.517.093.774.029.201.065.401.102.6l.01-.004a16.037 16.037 0 003.367-2.228 16.584 16.584 0 002.531-2.729 16.308 16.308 0 00.891-1.348 16.031 16.031 0 001.336-2.877c.02-.055.037-.11.056-.165 0-.007.005-.015.005-.023a3.723 3.723 0 01.112-.376 4.113 4.113 0 01.682-1.218 3.932 3.932 0 01.43-.452 4.013 4.013 0 011.374-.817 4.073 4.073 0 012.684 0 4.012 4.012 0 011.526.961l.033.034.034.033a3.944 3.944 0 01.278.308 3.98 3.98 0 01.743 1.405c.019.063.036.126.05.19a4.085 4.085 0 01-.26 2.674 4.152 4.152 0 01-.533.851 4.208 4.208 0 01-.278.308 4.055 4.055 0 01-1.902 1.072l-.023.005-.165.056a16.073 16.073 0 00-5.189 2.993 16.493 16.493 0 00-2.995 3.394 16.202 16.202 0 00-.998 1.737c-.005.004-.005.008-.005.012.2.036.4.072.6.101.258.037.516.068.775.093" fill="#e00" fill-opacity="1" stroke-width=".103"/></g></svg>