<?xml version="1.0" encoding="UTF-8" standalone="no"?>
<svg
   xmlns:dc="http://purl.org/dc/elements/1.1/"
   xmlns:cc="http://creativecommons.org/ns#"
   xmlns:rdf="http://www.w3.org/1999/02/22-rdf-syntax-ns#"
   xmlns:svg="http://www.w3.org/2000/svg"
   xmlns="http://www.w3.org/2000/svg"
   xmlns:sodipodi="http://sodipodi.sourceforge.net/DTD/sodipodi-0.dtd"
   xmlns:inkscape="http://www.inkscape.org/namespaces/inkscape"
   viewBox="0 0 316.09918 80.000013"
   version="1.1"
   id="svg40"
   sodipodi:docname="logo.svg"
   inkscape:version="0.92.4 (unknown)"
   width="316.09918"
   height="80.000015">
  <metadata
     id="metadata44">
    <rdf:RDF>
      <cc:Work
         rdf:about="">
        <dc:format>image/svg+xml</dc:format>
        <dc:type
           rdf:resource="http://purl.org/dc/dcmitype/StillImage" />
        <dc:title>Logo-Red_Hat-Distributed-Ci-A-Standard-RGB</dc:title>
      </cc:Work>
    </rdf:RDF>
  </metadata>
  <sodipodi:namedview
     pagecolor="#ffffff"
     bordercolor="#666666"
     borderopacity="1"
     objecttolerance="10"
     gridtolerance="10"
     guidetolerance="10"
     inkscape:pageopacity="0"
     inkscape:pageshadow="2"
     inkscape:window-width="1920"
     inkscape:window-height="1016"
     id="namedview42"
     showgrid="false"
     inkscape:zoom="0.91400492"
     inkscape:cx="266.89016"
     inkscape:cy="-106.83369"
     inkscape:window-x="1920"
     inkscape:window-y="27"
     inkscape:window-maximized="1"
     inkscape:current-layer="svg40"
     fit-margin-top="0"
     fit-margin-left="0"
     fit-margin-right="0"
     fit-margin-bottom="0" />
  <defs
     id="defs4">
    <style
       id="style2">.a{fill:#e00;}</style>
  </defs>
  <title
     id="title6">Logo-Red_Hat-Distributed-Ci-A-Standard-RGB</title>
  <g
     aria-label="Distributed CI"
     style="font-style:normal;font-variant:normal;font-weight:normal;font-stretch:normal;font-size:39.49323654px;line-height:1.25;font-family:'Red Hat Display';-inkscape-font-specification:'Red Hat Display';letter-spacing:0px;word-spacing:0px;writing-mode:lr-tb;fill:#ffffff;stroke-width:0.70523643"
     id="text853">
    <path
       d="m 73.295994,79.56559 h 9.754829 c 8.372566,0 14.573004,-5.884492 14.573004,-13.78314 0,-7.977633 -6.239931,-13.862126 -14.573004,-13.862126 H 73.295994 Z M 83.12981,55.632689 c 5.766012,0 10.228748,4.383749 10.228748,10.149761 0,5.687026 -4.462736,10.070776 -10.228748,10.070776 H 77.442784 V 55.632689 Z"
       style="font-style:normal;font-variant:normal;font-weight:500;font-stretch:normal;font-family:'Red Hat Display';-inkscape-font-specification:'Red Hat Display Medium';fill:#ffffff;stroke-width:0.70523643"
       id="path817" />
    <path
       d="m 103.56818,56.225087 c 1.34277,0 2.44858,-1.105811 2.44858,-2.448581 0,-1.34277 -1.10581,-2.44858 -2.44858,-2.44858 -1.34277,0 -2.40909,1.10581 -2.40909,2.44858 0,1.34277 1.06632,2.448581 2.40909,2.448581 z m 1.97466,3.238446 h -3.94932 V 79.56559 h 3.94932 z"
       style="font-style:normal;font-variant:normal;font-weight:500;font-stretch:normal;font-family:'Red Hat Display';-inkscape-font-specification:'Red Hat Display Medium';fill:#ffffff;stroke-width:0.70523643"
       id="path819" />
    <path
       d="m 108.33699,76.959036 c 2.21162,1.935169 5.33158,2.961993 8.80699,2.961993 4.77868,0 8.41206,-2.725033 8.41206,-6.318918 0,-3.119965 -2.09314,-5.015641 -6.08196,-5.608039 L 115.8407,67.48066 c -2.36959,-0.35544 -3.31743,-1.066318 -3.31743,-2.527568 0,-1.619222 1.61922,-2.725033 4.02831,-2.725033 2.13263,0 4.14679,0.631892 6.35841,2.093142 l 2.01416,-2.606554 c -2.52757,-1.737702 -5.13412,-2.56706 -8.09612,-2.56706 -4.69969,0 -7.85915,2.44858 -7.85915,6.081958 0,3.119966 2.01415,4.976148 6.00297,5.568546 l 3.63338,0.513412 c 2.21162,0.315946 3.23844,1.145304 3.23844,2.567061 0,1.777195 -1.97466,3.001486 -4.81817,3.001486 -2.25112,0 -4.46274,-0.868851 -6.55588,-2.527567 z"
       style="font-style:normal;font-variant:normal;font-weight:500;font-stretch:normal;font-family:'Red Hat Display';-inkscape-font-specification:'Red Hat Display Medium';fill:#ffffff;stroke-width:0.70523643"
       id="path821" />
    <path
       d="m 130.81172,74.589442 c 0,3.475405 2.09314,5.331587 6.00298,5.331587 1.18479,0 2.68554,-0.236959 3.75185,-0.592399 v -3.317431 c -0.98733,0.355439 -1.77719,0.473918 -2.883,0.473918 -2.13264,0 -2.962,-0.750371 -2.962,-2.804019 V 62.780964 h 5.92399 v -3.317431 h -5.92399 v -6.081959 l -3.90983,0.947838 v 5.134121 h -4.26527 v 3.317431 h 4.26527 z"
       style="font-style:normal;font-variant:normal;font-weight:500;font-stretch:normal;font-family:'Red Hat Display';-inkscape-font-specification:'Red Hat Display Medium';fill:#ffffff;stroke-width:0.70523643"
       id="path823" />
    <path
       d="m 143.55508,79.56559 h 3.94932 V 66.137889 c 1.02682,-2.409087 2.88301,-3.672871 5.21311,-3.672871 0.78986,0 1.57973,0.157973 2.3301,0.434426 v -3.554391 c -0.5924,-0.23696 -1.14531,-0.315946 -2.01416,-0.315946 -2.36959,0 -4.30476,1.066317 -5.52905,3.001486 v -2.56706 h -3.94932 z"
       style="font-style:normal;font-variant:normal;font-weight:500;font-stretch:normal;font-family:'Red Hat Display';-inkscape-font-specification:'Red Hat Display Medium';fill:#ffffff;stroke-width:0.70523643"
       id="path825" />
    <path
       d="m 160.18543,56.225087 c 1.34277,0 2.44858,-1.105811 2.44858,-2.448581 0,-1.34277 -1.10581,-2.44858 -2.44858,-2.44858 -1.34277,0 -2.40909,1.10581 -2.40909,2.44858 0,1.34277 1.06632,2.448581 2.40909,2.448581 z m 1.97466,3.238446 h -3.94932 V 79.56559 h 3.94932 z"
       style="font-style:normal;font-variant:normal;font-weight:500;font-stretch:normal;font-family:'Red Hat Display';-inkscape-font-specification:'Red Hat Display Medium';fill:#ffffff;stroke-width:0.70523643"
       id="path827" />
    <path
       d="m 187.07046,69.494815 c 0,-5.805506 -4.46274,-10.347228 -10.14976,-10.347228 -2.3301,0 -4.46274,0.789864 -6.12145,2.211621 V 51.051473 l -3.94933,0.868851 V 79.56559 h 3.90983 v -1.698209 c 1.7377,1.303277 3.83085,2.014155 6.08196,2.014155 5.76601,0 10.22875,-4.541722 10.22875,-10.386721 z m -10.66317,-6.911317 c 3.83084,0 6.79283,3.001486 6.79283,6.95081 0,3.949323 -2.9225,6.911316 -6.79283,6.911316 -2.25112,0 -4.34426,-0.908344 -5.60804,-2.369594 v -9.083444 c 1.30327,-1.540237 3.31743,-2.409088 5.60804,-2.409088 z"
       style="font-style:normal;font-variant:normal;font-weight:500;font-stretch:normal;font-family:'Red Hat Display';-inkscape-font-specification:'Red Hat Display Medium';fill:#ffffff;stroke-width:0.70523643"
       id="path829" />
    <path
       d="m 194.70931,59.463533 h -3.94932 v 12.598342 c 0,4.660202 3.19895,7.898647 7.81966,7.898647 2.44858,0 4.46273,-0.829358 6.04246,-2.409087 v 2.014155 h 3.94933 V 59.463533 h -3.94933 v 14.415031 c -1.10581,1.698209 -2.80402,2.646047 -4.93665,2.646047 -3.04098,0 -4.97615,-1.974662 -4.97615,-5.134121 z"
       style="font-style:normal;font-variant:normal;font-weight:500;font-stretch:normal;font-family:'Red Hat Display';-inkscape-font-specification:'Red Hat Display Medium';fill:#ffffff;stroke-width:0.70523643"
       id="path831" />
    <path
       d="m 215.81474,74.589442 c 0,3.475405 2.09314,5.331587 6.00297,5.331587 1.1848,0 2.68554,-0.236959 3.75186,-0.592399 v -3.317431 c -0.98733,0.355439 -1.7772,0.473918 -2.88301,0.473918 -2.13263,0 -2.96199,-0.750371 -2.96199,-2.804019 V 62.780964 h 5.92398 v -3.317431 h -5.92398 v -6.081959 l -3.90983,0.947838 v 5.134121 h -4.26527 v 3.317431 h 4.26527 z"
       style="font-style:normal;font-variant:normal;font-weight:500;font-stretch:normal;font-family:'Red Hat Display';-inkscape-font-specification:'Red Hat Display Medium';fill:#ffffff;stroke-width:0.70523643"
       id="path833" />
    <path
       d="m 245.5118,77.274982 -2.52757,-2.488074 c -1.26378,1.105811 -3.11996,1.777196 -5.09462,1.777196 -3.47541,0 -6.23994,-2.409088 -6.79284,-5.766013 h 15.87628 v -1.145303 c 0,-5.923986 -4.18628,-10.505201 -9.71534,-10.505201 -5.64753,0 -10.07077,4.541722 -10.07077,10.347228 0,5.884492 4.62071,10.426214 10.54469,10.426214 3.00149,0 5.45007,-0.829358 7.78017,-2.646047 z m -8.33307,-14.809964 c 2.9225,0 5.29209,2.290608 5.88449,5.371081 h -11.92696 c 0.5924,-3.198953 3.00149,-5.371081 6.04247,-5.371081 z"
       style="font-style:normal;font-variant:normal;font-weight:500;font-stretch:normal;font-family:'Red Hat Display';-inkscape-font-specification:'Red Hat Display Medium';fill:#ffffff;stroke-width:0.70523643"
       id="path835" />
    <path
       d="m 266.17541,79.56559 h 3.90983 V 51.051473 l -3.94932,0.868851 v 9.201924 c -1.73771,-1.263783 -3.83085,-1.974661 -6.04247,-1.974661 -5.76601,0 -10.22875,4.541722 -10.22875,10.347228 0,5.844999 4.46274,10.386721 10.14977,10.386721 2.3301,0 4.46273,-0.789865 6.16094,-2.211621 z M 253.73504,69.455321 c 0,-3.949323 2.96199,-6.911316 6.83233,-6.911316 2.21162,0 4.26527,0.868851 5.56855,2.369594 v 9.122938 c -1.34277,1.540236 -3.31743,2.409087 -5.56855,2.409087 -3.87034,0 -6.83233,-3.040979 -6.83233,-6.990303 z"
       style="font-style:normal;font-variant:normal;font-weight:500;font-stretch:normal;font-family:'Red Hat Display';-inkscape-font-specification:'Red Hat Display Medium';fill:#ffffff;stroke-width:0.70523643"
       id="path837" />
    <path
       d="m 296.91719,76.169172 c -5.92398,0 -10.38672,-4.541723 -10.38672,-10.426215 0,-5.923985 4.42324,-10.426214 10.26824,-10.426214 3.19895,0 6.27943,1.34277 8.37257,3.79135 l 2.76452,-2.843513 c -2.60655,-2.961992 -6.79283,-4.778681 -11.13709,-4.778681 -8.1751,0 -14.49402,6.239931 -14.49402,14.257058 0,7.977634 6.31892,14.257059 14.49402,14.257059 4.22578,0 8.33307,-1.816689 11.05811,-4.778682 l -2.72504,-2.764527 c -2.01415,2.369595 -5.01564,3.712365 -8.21459,3.712365 z"
       style="font-style:normal;font-variant:normal;font-weight:500;font-stretch:normal;font-family:'Red Hat Display';-inkscape-font-specification:'Red Hat Display Medium';fill:#ffffff;stroke-width:0.70523643"
       id="path839" />
    <path
       d="m 311.9524,79.56559 h 4.14679 V 51.920324 h -4.14679 z"
       style="font-style:normal;font-variant:normal;font-weight:500;font-stretch:normal;font-family:'Red Hat Display';-inkscape-font-specification:'Red Hat Display Medium';fill:#ffffff;stroke-width:0.70523643"
       id="path841" />
  </g>
  <path
     d="m 203.4256,33.766206 c 0,4.349725 2.61569,6.464224 7.38612,6.464224 a 19.063433,19.063433 0 0 0 4.34972,-0.614593 v -5.041144 a 9.0872323,9.0872323 0 0 1 -2.80958,0.424359 c -1.96451,0 -2.69251,-0.614593 -2.69251,-2.462038 v -7.733663 h 5.69233 V 19.60856 h -5.69233 v -6.58495 l -6.21912,1.346252 v 5.238698 h -4.12657 v 5.194791 h 4.1156 z m -19.38903,0.11706 c 0,-1.346252 1.34992,-2.001092 3.38759,-2.001092 a 15.774616,15.774616 0 0 1 3.69489,0.460946 v 2.615692 a 7.8690169,7.8690169 0 0 1 -3.8778,0.962133 c -1.99744,0 -3.19371,-0.768246 -3.19371,-2.037679 m 1.90232,6.42399 c 2.19499,0 3.96561,-0.460946 5.61917,-1.576732 v 1.232853 h 6.15327 V 26.917856 c 0,-4.960664 -3.34369,-7.682443 -8.92261,-7.682443 -3.11688,0 -6.19717,0.73166 -9.5116,2.231566 l 2.23157,4.580198 c 2.38521,-1.002373 4.38996,-1.616973 6.15693,-1.616973 2.56081,0 3.88512,0.99872 3.88512,3.040052 v 0.998719 a 18.119591,18.119591 0 0 0 -4.61679,-0.578013 c -5.23503,0 -8.38849,2.194986 -8.38849,6.120351 0,3.577818 2.84616,6.306917 7.38612,6.306917 m -33.81738,-0.34388 h 6.61787 V 29.420135 h 11.08101 v 10.543242 h 6.61788 V 13.030923 h -6.60325 v 10.349348 h -11.081 V 13.030923 H 152.1398 Z M 126.9231,29.767675 c 0,-2.926645 2.30838,-5.158211 5.34844,-5.158211 a 6.2996032,6.2996032 0 0 1 4.30949,1.580386 v 7.100777 a 5.9849889,5.9849889 0 0 1 -4.30949,1.616965 c -2.99981,0 -5.34844,-2.231565 -5.34844,-5.15455 m 9.73475,10.195701 h 6.15693 V 11.68467 l -6.21912,1.346253 v 7.656836 a 10.353006,10.353006 0 0 0 -5.1948,-1.346259 c -5.92279,0 -10.57982,4.576544 -10.57982,10.426175 a 10.334715,10.334715 0 0 0 10.37496,10.473728 9.1896649,9.1896649 0 0 0 5.46185,-1.766959 z M 108.41938,24.327771 c 1.96085,0 3.61441,1.269433 4.26925,3.230285 h -8.49093 c 0.6146,-2.037672 2.15474,-3.230285 4.23266,-3.230285 m -10.513974,5.476484 c 0,5.926457 4.847254,10.543241 11.077354,10.543241 3.42417,0 5.92645,-0.925552 8.50556,-3.080291 L 113.38005,33.6089 c -0.96214,1.002373 -2.38522,1.540146 -4.07536,1.540146 a 5.2643026,5.2643026 0 0 1 -5.00456,-3.230285 h 14.50519 v -1.536493 c 0,-6.464224 -4.34608,-11.117588 -10.27253,-11.117588 A 10.451781,10.451781 0 0 0 97.923706,29.804255 M 87.182918,18.686667 c 2.194979,0 3.424172,1.382839 3.424172,3.040052 0,1.657212 -1.232846,3.040052 -3.424172,3.040052 h -6.54105 v -6.080104 z m -13.169907,21.27671 h 6.617877 v -9.811582 h 5.037491 l 5.081384,9.811582 h 7.386123 L 92.209429,29.189662 a 8.1470481,8.1470481 0 0 0 5.077731,-7.58001 c 0,-4.847258 -3.808298,-8.578729 -9.511596,-8.578729 H 74.023991 Z"
     id="path38"
     inkscape:connector-curvature="0"
     style="fill:#ffffff;stroke-width:0.3658306" />
  <path
     d="m 26.418904,31.622727 c 0.516854,0.04947 1.035768,0.07423 1.554966,0.07428 0.519253,0 1.038198,-0.02487 1.555073,-0.07439 0.258558,-0.02467 0.51671,-0.05553 0.774035,-0.0928 0.153613,-0.02213 0.306405,-0.05093 0.459505,-0.07759 0.1033,-0.01787 0.207013,-0.0324 0.310005,-0.0524 0.512533,-0.09927 1.019984,-0.22316 1.520601,-0.371213 0.756834,-0.224 1.496218,-0.50316 2.212222,-0.83526 0.05391,-0.02507 0.107316,-0.05147 0.161023,-0.07717 0.0059,-0.004 0.01193,-0.0075 0.01789,-0.011 0.341192,-0.201554 0.710256,-0.35168 1.09526,-0.445507 0.189738,-0.0462 0.382531,-0.07876 0.576898,-0.09744 0.453754,-0.04333 0.911562,-0.0104 1.354437,0.09744 0.1271,0.03107 0.252635,0.06829 0.376165,0.11142 0.442688,0.154727 0.854957,0.38558 1.218209,0.68216 0.16136,0.131506 0.312404,0.27518 0.451786,0.429773 0.04671,0.05147 0.09137,0.103607 0.134684,0.1567 0.04342,0.05307 0.08509,0.107 0.125319,0.161847 0.03982,0.05473 0.07881,0.110186 0.115953,0.166366 0.03663,0.05627 0.07264,0.11318 0.106698,0.1708 0.03435,0.0576 0.06657,0.115953 0.09744,0.174807 0.06176,0.11706 0.117542,0.237179 0.167093,0.359906 0.02469,0.061 0.04764,0.12254 0.06955,0.18448 0.02202,0.06193 0.04219,0.124293 0.0604,0.186947 0.01873,0.0628 0.03571,0.12584 0.05124,0.189319 0.04655,0.189667 0.07923,0.382487 0.09774,0.5769 0.01233,0.129127 0.01881,0.258973 0.01881,0.38872 0,0.32536 -0.03941,0.649533 -0.116572,0.965613 -0.01547,0.06347 -0.03256,0.12652 -0.05124,0.189113 -0.07476,0.253 -0.174256,0.498033 -0.297043,0.73154 -0.03109,0.059 -0.06359,0.117246 -0.09743,0.174706 -0.03428,0.0576 -0.06956,0.11452 -0.106698,0.1708 -0.0374,0.05633 -0.07606,0.111854 -0.115954,0.166474 -0.08132,0.110399 -0.168103,0.216673 -0.260003,0.318446 -0.04661,0.05147 -0.09425,0.10186 -0.143735,0.151347 -0.194092,0.194166 -0.407257,0.368273 -0.636268,0.519693 -0.111768,0.07373 -0.227107,0.141886 -0.345603,0.20424 -0.233561,0.122586 -0.47854,0.222073 -0.731445,0.297039 -0.125155,0.03693 -0.251985,0.06789 -0.380073,0.09281 -0.511698,0.09891 -1.037605,0.09891 -1.549308,0 -0.51997,-0.100453 -1.015096,-0.30228 -1.457118,-0.59398 -0.417728,-0.275946 -0.855506,-0.520266 -1.309678,-0.730926 -0.149705,-0.06947 -0.301096,-0.13524 -0.454054,-0.19724 -0.126779,-0.0508 -0.254596,-0.09907 -0.383361,-0.144666 -0.02612,-0.0093 -0.05186,-0.02013 -0.07778,-0.02933 -0.924114,-0.3231 -1.890152,-0.510659 -2.868043,-0.556839 -0.975154,-0.04653 -1.951944,0.04727 -2.90045,0.278413 -0.317805,0.07759 -0.631671,0.170506 -0.940511,0.278426 -0.310913,0.108714 -0.616309,0.2326 -0.9151,0.37122 -0.02427,0.0112 -0.04764,0.02407 -0.07171,0.03547 0,0.0027 0,0.006 0.0051,0.0089 0.02192,0.06193 0.04527,0.123467 0.06955,0.18448 0.07507,0.18442 0.16344,0.363126 0.264427,0.53472 0.103414,0.174793 0.21976,0.341593 0.348073,0.499013 0.04301,0.05307 0.08817,0.10536 0.134581,0.1567 0.04671,0.05147 0.09435,0.10186 0.143941,0.151346 0.09784,0.09804 0.200656,0.190974 0.308052,0.27842 0.02377,0.01953 0.04815,0.03747 0.07264,0.0564 0.02984,0.02307 0.05896,0.0468 0.0891,0.06893 0.215943,0.158834 0.447219,0.295667 0.690386,0.408467 0.119518,0.0554 0.241657,0.104947 0.365979,0.148473 0.43129,0.150707 0.884919,0.22758 1.34178,0.227387 0.325388,10e-5 0.649583,0.03907 0.965715,0.11606 0.190975,0.04667 0.378317,0.107133 0.560545,0.18088 0.437548,0.177346 0.840492,0.430259 1.190427,0.747179 0.154388,0.13964 0.298049,0.2907 0.429771,0.451893 0.128582,0.1572 0.244908,0.324027 0.347974,0.499007 0.03395,0.0576 0.06657,0.115966 0.09754,0.174813 0.03106,0.05887 0.06029,0.11832 0.08807,0.178307 0.02799,0.06 0.05423,0.120586 0.07892,0.1816 0.02469,0.061 0.04775,0.122539 0.06966,0.184486 0.02191,0.06193 0.04219,0.124287 0.06029,0.187047 0.01884,0.0628 0.0353,0.125733 0.05144,0.189113 0.01544,0.0634 0.02879,0.127067 0.04209,0.19096 0.04943,0.255293 0.07438,0.51472 0.07449,0.774759 0,0.259994 -0.02517,0.51938 -0.07449,0.774653 -0.01233,0.06387 -0.02652,0.127587 -0.04219,0.19096 -0.01551,0.06347 -0.03259,0.126594 -0.05134,0.189214 -0.01873,0.0628 -0.03889,0.125013 -0.06029,0.186953 -0.02202,0.06193 -0.04445,0.123466 -0.06966,0.18448 -0.04982,0.122593 -0.105542,0.2427 -0.166988,0.359906 -0.03109,0.059 -0.06363,0.11732 -0.09754,0.174807 -0.03424,0.05773 -0.06983,0.114686 -0.106698,0.1708 -0.03738,0.05633 -0.07605,0.111866 -0.115958,0.166473 -0.08129,0.110393 -0.168026,0.216673 -0.259897,0.31844 -0.04661,0.05147 -0.09435,0.10186 -0.143841,0.151353 -0.146226,0.146187 -0.303277,0.281153 -0.469792,0.40374 -0.108681,0.07977 -0.221243,0.154106 -0.33727,0.222753 -0.397658,0.234907 -0.832725,0.399733 -1.286221,0.487287 -0.772421,0.149446 -1.571593,0.07208 -2.301014,-0.22276 -0.122676,-0.0496 -0.242789,-0.10536 -0.35991,-0.166987 -0.118508,-0.06227 -0.233824,-0.13042 -0.345501,-0.204233 -0.170983,-0.112787 -0.333126,-0.238433 -0.485021,-0.37586 -0.10328,-0.09338 -0.201806,-0.1919 -0.295188,-0.295187 -0.04661,-0.05147 -0.09126,-0.103606 -0.134581,-0.156699 -0.128325,-0.157414 -0.244671,-0.32422 -0.348073,-0.499014 -0.034,-0.0574 -0.06645,-0.115686 -0.09733,-0.174806 -0.09225,-0.17536 -0.171342,-0.35732 -0.236648,-0.544387 -0.04329,-0.123459 -0.08037,-0.249006 -0.11112,-0.376173 -0.04649,-0.18968 -0.07916,-0.382479 -0.09774,-0.576893 -0.01248,-0.129233 -0.01879,-0.258986 -0.01893,-0.38882 0,-0.325366 -0.03941,-0.649539 -0.116573,-0.965619 -0.01558,-0.0634 -0.03252,-0.126513 -0.05083,-0.189213 -0.01877,-0.06273 -0.03888,-0.12506 -0.06029,-0.186947 -0.02203,-0.06193 -0.04527,-0.123467 -0.06966,-0.184486 -0.02469,-0.0612 -0.05097,-0.12176 -0.07881,-0.1816 -0.02797,-0.06013 -0.05736,-0.119647 -0.08818,-0.178407 -0.03113,-0.059 -0.06366,-0.11724 -0.09754,-0.174707 -0.03395,-0.0576 -0.06966,-0.114513 -0.106696,-0.170793 -0.151419,-0.229006 -0.325528,-0.442173 -0.519689,-0.636266 -0.0097,-0.0097 -0.01976,-0.0186 -0.02933,-0.02827 -0.03982,-0.03913 -0.08025,-0.0783 -0.121514,-0.115646 -0.15203,-0.137254 -0.314161,-0.262894 -0.485019,-0.375854 -0.111772,-0.07369 -0.227114,-0.141813 -0.345604,-0.204133 -0.233489,-0.122673 -0.478439,-0.22216 -0.731337,-0.29704 -0.125131,-0.037 -0.251968,-0.06799 -0.380073,-0.09281 -0.01287,-0.0027 -0.02665,-0.0033 -0.03992,-0.006 -0.114608,-0.02153 -0.230088,-0.0382 -0.346122,-0.04987 -0.65145,-0.06253 -1.308377,0.03293 -1.915079,0.27832 -0.36742,0.149113 -0.729253,0.311646 -1.084762,0.48728 -0.478463,0.23664 -0.944919,0.496819 -1.397648,0.779593 -0.574967,0.359593 -1.12685,0.754846 -1.652403,1.183432 -0.321106,0.26182 -0.632094,0.535807 -0.93228,0.821367 -0.403005,0.383326 -0.78651,0.786646 -1.149068,1.208432 -0.178477,0.208074 -0.351728,0.420574 -0.519591,0.6373 -0.249168,0.32152 -0.486053,0.652373 -0.710144,0.991853 -0.147899,0.22416 -0.290204,0.451953 -0.426783,0.683186 -0.06802,0.11496 -0.134562,0.230787 -0.199607,0.34746 -0.129627,0.232353 -0.25344,0.467907 -0.371328,0.706433 -0.04208,0.08437 -0.0818,0.16946 -0.121922,0.254547 10.477186,7.860829 25.147725,6.819903 34.429544,-2.442899 C 55.247403,34.674079 55.256838,17.99056 44.972851,7.7064321 l -0.0045,2.07e-4 C 34.684305,-2.5772809 18.001165,-2.5676999 7.705427,7.7283391 -1.5544808,17.011288 -2.5933933,31.680694 5.2671531,42.156656 c 0.083549,-0.03953 0.167094,-0.07881 0.2500226,-0.11986 0.3583399,-0.176947 0.7098884,-0.367327 1.0538958,-0.570733 0.4643411,-0.27416 0.9145709,-0.57154 1.3489814,-0.89102 0.2199512,-0.161527 0.4357444,-0.328647 0.6471743,-0.50118 0.2133832,-0.174186 0.4223825,-0.35368 0.6268024,-0.538313 0.2066552,-0.186613 0.4084871,-0.378493 0.6052957,-0.57546 0.1968145,-0.196926 0.3886607,-0.398753 0.5753577,-0.605299 0.184847,-0.204294 0.364381,-0.413327 0.538422,-0.626907 0.172327,-0.21156 0.339402,-0.427353 0.501069,-0.647173 0.160214,-0.218006 0.314973,-0.439973 0.464136,-0.665693 0.221714,-0.33564 0.430727,-0.679499 0.626595,-1.030846 0.194296,-0.348006 0.375374,-0.703226 0.542844,-1.064906 0.111071,-0.239533 0.216289,-0.48174 0.31556,-0.7264 0.02469,-0.06093 0.04815,-0.12244 0.06956,-0.18438 0.02203,-0.06193 0.04218,-0.124286 0.06029,-0.186946 0.0744,-0.249947 0.124361,-0.50652 0.149188,-0.766113 0.01234,-0.129233 0.01882,-0.258973 0.01882,-0.38882 0,-0.12964 -0.0065,-0.259486 -0.01882,-0.38872 -0.01185,-0.116033 -0.02842,-0.23154 -0.04969,-0.34622 -0.0051,-0.01313 -0.0051,-0.02653 -0.0055,-0.03973 -0.01234,-0.06387 -0.02654,-0.12758 -0.04208,-0.19096 -0.03074,-0.127166 -0.06782,-0.252713 -0.111121,-0.376166 -0.02164,-0.06207 -0.04482,-0.12358 -0.06955,-0.18448 -0.07509,-0.18442 -0.163501,-0.363133 -0.264527,-0.53472 -0.0684,-0.11618 -0.142748,-0.22876 -0.222757,-0.337273 -0.0813,-0.110387 -0.16804,-0.216667 -0.259897,-0.31844 -0.03777,-0.04127 -0.07629,-0.08179 -0.115546,-0.121613 -0.01007,-0.0097 -0.01882,-0.02 -0.02839,-0.02973 -0.14616,-0.146273 -0.303208,-0.281239 -0.469793,-0.403739 -0.269254,-0.197994 -0.56214,-0.361653 -0.871883,-0.487187 -0.363698,-0.147526 -0.746928,-0.241346 -1.1376478,-0.27852 -0.1292013,-0.01233 -0.2589232,-0.01853 -0.3887165,-0.01853 -0.589837,-6e-5 -1.1726161,-0.12834 -1.7079612,-0.37596 C 7.7765856,27.578609 7.658803,27.516636 7.544331,27.448896 7.4282144,27.380429 7.3156458,27.306116 7.2070599,27.226243 6.873298,26.981016 6.5787545,26.686476 6.3335309,26.35271 6.0574221,25.977003 5.8485497,25.556264 5.7161936,25.10919 c -0.018679,-0.06253 -0.035606,-0.125606 -0.050723,-0.189106 -0.046558,-0.189673 -0.079228,-0.382487 -0.097746,-0.576907 -0.012427,-0.129233 -0.018654,-0.258986 -0.018734,-0.388819 2.766e-4,-0.390967 0.056645,-0.779873 0.1674011,-1.154826 0.074767,-0.25296 0.1742258,-0.497947 0.2969371,-0.73144 0.03066,-0.05887 0.063484,-0.117087 0.097436,-0.174707 0.033957,-0.0576 0.069658,-0.11462 0.1066955,-0.1708 0.1899401,-0.287253 0.4154062,-0.549359 0.6710468,-0.780106 0.1017393,-0.09198 0.2080919,-0.178726 0.3186486,-0.259893 0.1623446,-0.119513 0.3334905,-0.226587 0.511975,-0.320293 0.1171267,-0.0616 0.2372453,-0.117334 0.3599072,-0.166994 0.1216759,-0.0492 0.2456272,-0.09256 0.3714298,-0.129953 0.2499892,-0.07407 0.5065545,-0.123786 0.7661163,-0.148466 0.2585492,-0.02487 0.5188804,-0.02487 0.7774297,0 0.3249082,0.0312 0.6448882,0.10132 0.9530642,0.208866 0.44273,0.15464 0.855006,0.3855 1.218211,0.68216 0.214745,0.175233 0.411233,0.37172 0.586469,0.586466 0.128573,0.1572 0.244905,0.324027 0.347973,0.499013 0.03437,0.0576 0.06657,0.115854 0.09744,0.174707 0.09241,0.175307 0.171517,0.35732 0.236644,0.544486 0.02203,0.06187 0.04219,0.124187 0.06039,0.186954 0.03735,0.125086 0.06853,0.251926 0.09342,0.380073 0.04939,0.255293 0.0743,0.514726 0.07439,0.774753 2.77e-4,0.325366 0.03942,0.649533 0.116573,0.965619 0.01544,0.0634 0.03241,0.126553 0.05124,0.189213 0.01882,0.06273 0.03889,0.125014 0.06039,0.186954 0.02151,0.06193 0.04527,0.123466 0.06955,0.184473 0.100292,0.246806 0.224672,0.48312 0.371328,0.70552 0.03663,0.05627 0.07572,0.111733 0.115956,0.166473 0.02244,0.03013 0.04609,0.05947 0.06894,0.0891 0.01882,0.0242 0.03663,0.04873 0.05638,0.07265 0.04345,0.05347 0.08832,0.105747 0.134578,0.156794 0.04661,0.05127 0.09425,0.101866 0.14374,0.151253 0.336196,0.33654 0.728889,0.611413 1.160178,0.812106 0.119568,0.0554 0.241775,0.104974 0.366184,0.148467 0.0051,0.0013 0.0055,0.0027 0.0086,0.0027 0.01143,-0.02393 0.02427,-0.04753 0.03529,-0.07171 0.06944,-0.1497 0.135173,-0.3011 0.197135,-0.454053 0.123472,-0.304026 0.231879,-0.61396 0.324822,-0.928673 0.04647,-0.156573 0.089,-0.314286 0.127582,-0.472986 0.03899,-0.158447 0.07346,-0.317513 0.104433,-0.477407 0.03066,-0.159786 0.05803,-0.320193 0.08128,-0.481006 0.04645,-0.3214 0.07742,-0.644846 0.09281,-0.96922 0.0077,-0.162046 0.01185,-0.324199 0.01185,-0.486459 0,-0.162154 -0.0051,-0.324407 -0.01193,-0.48646 -0.01539,-0.324373 -0.04636,-0.64782 -0.09281,-0.96922 -0.02331,-0.160946 -0.05037,-0.321326 -0.08118,-0.481006 -0.03107,-0.159787 -0.06575,-0.31896 -0.104329,-0.477407 -0.03861,-0.1587 -0.08119,-0.316413 -0.127686,-0.472979 -0.04636,-0.157047 -0.09665,-0.312907 -0.150837,-0.467427 -0.0092,-0.02613 -0.01954,-0.05173 -0.02881,-0.07789 -0.04561,-0.128753 -0.09384,-0.256567 -0.14466,-0.38336 -0.25022,-0.61718 -0.561099,-1.207986 -0.928063,-1.763732 -0.03755,-0.0562 -0.07264,-0.113174 -0.106696,-0.170794 -0.03396,-0.0576 -0.06657,-0.115853 -0.09754,-0.174706 -0.03091,-0.05867 -0.06027,-0.118187 -0.08807,-0.178413 -0.05563,-0.119447 -0.105177,-0.241627 -0.148472,-0.36608 -0.02192,-0.06173 -0.04206,-0.124067 -0.06039,-0.186947 -0.01846,-0.06267 -0.03557,-0.125786 -0.05134,-0.189213 -0.01517,-0.0634 -0.02921,-0.12706 -0.04208,-0.190967 -0.04943,-0.255293 -0.07437,-0.514719 -0.07449,-0.774753 2.77e-4,-0.325366 0.03942,-0.649533 0.116573,-0.965619 0.01553,-0.0634 0.03251,-0.126347 0.05134,-0.189107 0.01873,-0.06273 0.03838,-0.12512 0.06019,-0.187053 0.02203,-0.06193 0.04527,-0.123473 0.06976,-0.184487 0.04983,-0.122586 0.105558,-0.242693 0.166991,-0.359899 0.03107,-0.05887 0.06338,-0.117194 0.09744,-0.174814 0.03437,-0.0576 0.06966,-0.114513 0.106696,-0.170793 0.228112,-0.344966 0.507197,-0.653366 0.827744,-0.914686 0.105365,-0.08579 0.214905,-0.166307 0.328218,-0.24128 0.167194,-0.110247 0.342308,-0.20798 0.523912,-0.292407 0.17908,-0.08293 0.363945,-0.152726 0.553134,-0.208866 0.12515,-0.03687 0.251985,-0.06784 0.380074,-0.09271 0.255302,-0.04933 0.514729,-0.07421 0.774755,-0.07429 0.259989,1.06e-4 0.519377,0.025 0.774655,0.07429 0.192474,0.03733 0.382008,0.08851 0.567126,0.1531 0.187075,0.06527 0.369039,0.14438 0.544387,0.236647 0.361959,0.190306 0.692979,0.434393 0.981771,0.723933 0.0498,0.04947 0.09744,0.100006 0.143839,0.151346 0.04671,0.05147 0.09137,0.103607 0.134578,0.1567 0.128592,0.157214 0.244955,0.324033 0.348075,0.499013 0.06751,0.114654 0.129456,0.232494 0.185612,0.35312 0.02799,0.06 0.05412,0.12058 0.07891,0.181593 0.02469,0.06113 0.04815,0.122547 0.06956,0.184487 0.0433,0.123453 0.08038,0.248993 0.111119,0.37616 0.01563,0.0634 0.02984,0.127073 0.04219,0.19096 0.04943,0.2553 0.07437,0.514726 0.07449,0.774759 -2.77e-4,0.325367 -0.03941,0.649533 -0.116576,0.96562 -0.03081,0.12714 -0.0679,0.252686 -0.111118,0.37616 -0.02161,0.06193 -0.04445,0.123466 -0.06966,0.184486 -0.07488,0.184494 -0.163258,0.363213 -0.264425,0.534713 -0.0051,0.006 -0.0074,0.01173 -0.01101,0.01773 -0.02613,0.05373 -0.05217,0.107006 -0.07717,0.161026 -0.276897,0.597213 -0.517145,1.210746 -0.719403,1.837193 -0.08041,0.248966 -0.154645,0.499886 -0.222651,0.752533 -0.1019,0.37776 -0.190134,0.759073 -0.26453,1.143199 -0.01965,0.102893 -0.03426,0.206807 -0.05237,0.310007 -0.02654,0.1531 -0.05535,0.305893 -0.07758,0.459606 -0.03704,0.257327 -0.06791,0.515473 -0.09281,0.773933 -0.04951,0.516913 -0.07437,1.035893 -0.07449,1.555173 2.08e-4,0.519213 0.02505,1.038126 0.0746,1.554966 m -1.03e-4,10e-5 c 0.02469,0.258566 0.05577,0.516506 0.09291,0.773939 0.02881,0.20084 0.06482,0.400753 0.101346,0.600567 0.0051,-0.002 0.0077,-0.004 0.01132,-0.0053 0.358324,-0.17704 0.709899,-0.36742 1.053998,-0.570726 0.347555,-0.20522 0.687228,-0.4235 1.018295,-0.65438 0.447902,-0.312086 0.879731,-0.646626 1.29383,-1.002346 0.210018,-0.180473 0.415486,-0.36618 0.616203,-0.55694 0.403143,-0.383233 0.786681,-0.786553 1.149173,-1.208433 0.267203,-0.311366 0.522583,-0.632679 0.765599,-0.963252 0.160177,-0.218054 0.314904,-0.440053 0.464031,-0.6658 0.147968,-0.22416 0.290335,-0.45196 0.426991,-0.68318 0.270776,-0.458179 0.518564,-0.929546 0.742449,-1.412366 0.111081,-0.239533 0.216294,-0.481733 0.315562,-0.726399 0.0497,-0.122027 0.09744,-0.244567 0.143841,-0.36762 0.04647,-0.12284 0.09134,-0.246287 0.134578,-0.3703 0.01924,-0.05473 0.03663,-0.109887 0.05535,-0.164833 0,-0.0074 0.0051,-0.01513 0.0051,-0.02267 0.01544,-0.0634 0.03241,-0.126347 0.05124,-0.189113 0.01873,-0.06273 0.03889,-0.125007 0.0604,-0.186947 0.02191,-0.06193 0.04435,-0.123466 0.06956,-0.184586 0.07508,-0.184407 0.16346,-0.363113 0.264422,-0.53472 0.03435,-0.0576 0.06976,-0.114513 0.106903,-0.170787 0.03651,-0.0562 0.07573,-0.11164 0.115957,-0.166373 0.04041,-0.05493 0.08217,-0.10886 0.125217,-0.161746 0.04311,-0.05307 0.08828,-0.10546 0.13468,-0.1568 0.04661,-0.05147 0.09425,-0.101867 0.143736,-0.151247 0.04939,-0.0496 0.10001,-0.09754 0.151454,-0.143947 0.101641,-0.09198 0.20793,-0.178693 0.31844,-0.259793 0.108601,-0.0799 0.221163,-0.15424 0.337274,-0.22276 0.228084,-0.134913 0.469002,-0.24686 0.719198,-0.33418 0.185077,-0.0646 0.374577,-0.115786 0.567022,-0.153099 0.576374,-0.11152 1.170025,-0.09727 1.740374,0.0418 0.127056,0.03113 0.252562,0.06831 0.376059,0.111426 0.31378,0.1095 0.612737,0.25756 0.889993,0.44078 0.113436,0.07483 0.22298,0.155393 0.328216,0.241373 0.107345,0.08753 0.210162,0.180453 0.308051,0.278427 0.01141,0.01133 0.02202,0.02293 0.03252,0.03433 0.01141,0.0112 0.02283,0.02133 0.03439,0.03253 0.04969,0.04947 0.09744,0.100007 0.143735,0.151247 0.04671,0.05147 0.09136,0.103713 0.134579,0.156806 0.128623,0.157207 0.245023,0.324034 0.34818,0.499014 0.03424,0.0576 0.06647,0.115853 0.09744,0.174806 0.03106,0.05887 0.06029,0.118327 0.08807,0.178307 0.02799,0.06 0.05423,0.120586 0.07891,0.1816 0.02469,0.061 0.04775,0.12254 0.06966,0.18448 0.02191,0.06193 0.04208,0.124293 0.06029,0.187053 0.01881,0.06273 0.03571,0.125733 0.05083,0.189113 0.01551,0.0634 0.02879,0.127067 0.04219,0.19096 0.0494,0.2553 0.07431,0.514726 0.07439,0.77476 0,0.259999 -0.02506,0.519393 -0.07449,0.774653 -0.02539,0.128026 -0.05639,0.254873 -0.09291,0.380173 -0.0188,0.06267 -0.03899,0.125013 -0.06039,0.186953 -0.02191,0.06193 -0.04527,0.123467 -0.06956,0.18448 -0.02469,0.061 -0.05083,0.121613 -0.07891,0.1816 -0.05618,0.120613 -0.118119,0.238453 -0.185612,0.353113 -0.10323,0.174907 -0.21959,0.341726 -0.348076,0.499013 -0.04357,0.05333 -0.08844,0.105573 -0.13458,0.156707 -0.04671,0.05147 -0.09435,0.10186 -0.143841,0.151346 -0.241532,0.24202 -0.512708,0.45252 -0.807066,0.626493 -0.228197,0.134667 -0.46909,0.246567 -0.719194,0.33408 -0.123467,0.0432 -0.248969,0.08041 -0.376059,0.111433 -0.0073,0.002 -0.01515,0.0033 -0.02294,0.0053 -0.05484,0.01853 -0.110089,0.03633 -0.164829,0.05547 -0.622655,0.217594 -1.231338,0.473313 -1.822583,0.765707 -0.238525,0.117833 -0.474083,0.241613 -0.706437,0.371219 -0.706635,0.394274 -1.3827,0.841 -2.022494,1.336433 -0.216781,0.16782 -0.429248,0.34114 -0.637197,0.519793 -0.210129,0.18038 -0.415631,0.366087 -0.616307,0.556947 -0.601964,0.572306 -1.159839,1.189266 -1.668865,1.845625 -0.248982,0.321607 -0.485803,0.65246 -0.709936,0.991853 -0.294881,0.446927 -0.567426,0.908193 -0.816634,1.382113 -0.06173,0.117807 -0.122233,0.236133 -0.180981,0.354966 -0.0051,0.004 -0.0051,0.0075 -0.0051,0.01133 0.199812,0.03653 0.399725,0.07243 0.600567,0.101446 0.257223,0.03707 0.515371,0.06801 0.773931,0.09281"
     id="path2"
     inkscape:connector-curvature="0"
     style="fill:#ee0000;fill-opacity:1;stroke-width:0.10288934"
     sodipodi:nodetypes="cccccccccccccccccccccccccccccccccccccccccccccccccccccccccccccccccccccssccccccccccccccccccccccccccccccccccccccccccccccccccccccccccccccccccccccccccccccccscccccccccccccccccccccccccscccccccccccccccccccscccccccccccccccccscccccccccccccccccccccccccccccccccccccccccccccccccccccccccccccccccccccccccccccccccccccccccccccccccccccsscccccccccccccccccccccccccccccc" />
</svg>
