<svg width="197.56" height="50" version="1.1" viewBox="0 0 197.56 50" xmlns="http://www.w3.org/2000/svg">
 <title>Logo-Red_Hat-Distributed-Ci-A-Standard-RGB</title>
 <path transform="scale(.625)" d="m170.8 51.05-3.95 0.87188v27.644h3.9094v-1.6969c1.7377 1.3033 3.8301 2.0125 6.0812 2.0125 5.766 0 10.231-4.5425 10.231-10.388 0-5.8055-4.463-10.347-10.15-10.347-2.3301 0-4.4632 0.79074-6.1219 2.2125v-10.309zm99.284 0-3.95 0.87188v9.2c-1.7377-1.2638-3.829-1.975-6.0406-1.975-5.766 0-10.228 4.5414-10.228 10.347 0 5.845 4.463 10.388 10.15 10.388 2.3301 0 4.4612-0.79074 6.1594-2.2125v1.8969h3.9094v-28.516zm-166.52 0.27812c-1.3428 0-2.4094 1.1041-2.4094 2.4469s1.0666 2.45 2.4094 2.45 2.4469-1.1072 2.4469-2.45-1.1041-2.4469-2.4469-2.4469zm56.616 0c-1.3428 0-2.4094 1.1041-2.4094 2.4469s1.0666 2.45 2.4094 2.45 2.45-1.1072 2.45-2.45-1.1072-2.4469-2.45-2.4469zm136.62 0.15625c-8.1751 0-14.497 6.2423-14.497 14.259 0 7.9776 6.3218 14.256 14.497 14.256 4.2258 0 8.3312-1.8161 11.056-4.7781l-2.725-2.7656c-2.0142 2.3696-5.0167 3.7125-8.2156 3.7125-5.924 0-10.384-4.5405-10.384-10.425 0-5.924 4.4238-10.428 10.269-10.428 3.199 0 6.2787 1.3452 8.3719 3.7938l2.7625-2.8438c-2.6066-2.962-6.7901-4.7813-11.134-4.7813zm-223.5 0.4375v27.644h9.7531c8.3726 0 14.575-5.8857 14.575-13.784 0-7.9776-6.2419-13.859-14.575-13.859h-9.7531zm238.66 0v27.644h4.1469v-27.644h-4.1469zm-177.23 1.4594-3.9094 0.94688v5.1344h-4.2656v3.3188h4.2656v11.809c0 3.4754 2.0933 5.3313 6.0031 5.3313 1.1848 0 2.6837-0.23831 3.75-0.59375v-3.3156c-0.98733 0.35544-1.7754 0.47188-2.8812 0.47188-2.1326 0-2.9625-0.74948-2.9625-2.8031v-10.9h5.925v-3.3188h-5.925v-6.0813zm85.003 0-3.9094 0.94688v5.1344h-4.2656v3.3188h4.2656v11.809c0 3.4754 2.0933 5.3313 6.0031 5.3313 1.1848 0 2.6837-0.23831 3.75-0.59375v-3.3156c-0.98733 0.35544-1.7754 0.47188-2.8812 0.47188-2.1326 0-2.9625-0.74948-2.9625-2.8031v-10.9h5.925v-3.3188h-5.925v-6.0813zm-142.28 2.25h5.6875c5.766 0 10.228 4.384 10.228 10.15 0 5.687-4.4621 10.072-10.228 10.072h-5.6875v-20.222zm75.591 3.3969c-2.3696 0-4.307 1.068-5.5312 3.0031v-2.5688h-3.9469v20.103h3.9469v-13.428c1.0268-2.4091 2.8855-3.6719 5.2156-3.6719 0.78986 0 1.5778 0.15792 2.3281 0.43438v-3.5563c-0.5924-0.23696-1.1436-0.31562-2.0125-0.31562zm-36.206 0.11875c-4.6997 0-7.8594 2.4479-7.8594 6.0813 0 3.12 2.0143 4.9764 6.0031 5.5688l3.6344 0.51562c2.2116 0.31595 3.2375 1.1439 3.2375 2.5656 0 1.7772-1.9752 3.0031-4.8188 3.0031-2.2511 0-4.4631-0.86941-6.5562-2.5281l-2.1312 2.6063c2.2116 1.9352 5.3308 2.9625 8.8062 2.9625 4.7787 0 8.4125-2.7249 8.4125-6.3188 0-3.12-2.0924-5.017-6.0812-5.6094l-3.6344-0.5125c-2.3696-0.35544-3.3188-1.0669-3.3188-2.5281 0-1.6192 1.619-2.725 4.0281-2.725 2.1326 0 4.1478 0.6325 6.3594 2.0938l2.0156-2.6062c-2.5276-1.7377-5.1349-2.5688-8.0969-2.5688zm120.43 0c-5.6475 0-10.069 4.5414-10.069 10.347 0 5.8845 4.6198 10.428 10.544 10.428 3.0015 0 5.4512-0.83019 7.7812-2.6469l-2.5281-2.4875c-1.2638 1.1058-3.1191 1.7781-5.0938 1.7781-3.4754 0-6.2408-2.4118-6.7938-5.7688h15.875v-1.1438c0-5.924-4.1866-10.506-9.7156-10.506zm-135.66 0.31562v20.103h3.95v-20.103h-3.95zm56.616 0v20.103h3.95v-20.103h-3.95zm32.55 0v12.6c0 4.6602 3.198 7.8969 7.8188 7.8969 2.4486 0 4.464-0.82965 6.0438-2.4094v2.0156h3.95v-20.103h-3.95v14.416c-1.1058 1.6982-2.8049 2.6469-4.9375 2.6469-3.041 0-4.975-1.9749-4.975-5.1344v-11.928h-3.95zm46.419 3.0031c2.9225 0 5.292 2.2914 5.8844 5.3719h-11.925c0.5924-3.199 2.9996-5.3719 6.0406-5.3719zm23.391 0.078125c2.2116 0 4.2624 0.86801 5.5656 2.3688v9.125c-1.3428 1.5402-3.3145 2.4094-5.5656 2.4094-3.8703 0-6.8344-3.0413-6.8344-6.9906 0-3.9493 2.964-6.9125 6.8344-6.9125zm-84.163 0.040625c3.8308 0 6.7938 3.0007 6.7938 6.95 0 3.9493-2.9234 6.9125-6.7938 6.9125-2.2511 0-4.3425-0.91063-5.6062-2.3719v-9.0813c1.3033-1.5402 3.3156-2.4094 5.6062-2.4094z" stroke-width=".70524"/>
 <path transform="scale(.625)" d="m203.43 33.766c0 4.3497 2.6157 6.4642 7.3861 6.4642a19.063 19.063 0 0 0 4.3497-0.61459v-5.0411a9.0872 9.0872 0 0 1-2.8096 0.42436c-1.9645 0-2.6925-0.61459-2.6925-2.462v-7.7337h5.6923v-5.1948h-5.6923v-6.585l-6.2191 1.3463v5.2387h-4.1266v5.1948h4.1156zm-19.389 0.11706c0-1.3463 1.3499-2.0011 3.3876-2.0011a15.775 15.775 0 0 1 3.6949 0.46095v2.6157a7.869 7.869 0 0 1-3.8778 0.96213c-1.9974 0-3.1937-0.76825-3.1937-2.0377m1.9023 6.424c2.195 0 3.9656-0.46095 5.6192-1.5767v1.2329h6.1533v-13.046c0-4.9607-3.3437-7.6824-8.9226-7.6824-3.1169 0-6.1972 0.73166-9.5116 2.2316l2.2316 4.5802c2.3852-1.0024 4.39-1.617 6.1569-1.617 2.5608 0 3.8851 0.99872 3.8851 3.0401v0.99872a18.12 18.12 0 0 0-4.6168-0.57801c-5.235 0-8.3885 2.195-8.3885 6.1204 0 3.5778 2.8462 6.3069 7.3861 6.3069m-33.817-0.34388h6.6179v-10.554h11.081v10.543h6.6179v-26.932h-6.6032v10.349h-11.081v-10.349h-6.6179zm-25.202-10.207c0-2.9266 2.3084-5.1582 5.3484-5.1582a6.2996 6.2996 0 0 1 4.3095 1.5804v7.1008a5.985 5.985 0 0 1-4.3095 1.617c-2.9998 0-5.3484-2.2316-5.3484-5.1546m9.7348 10.196h6.1569v-28.264l-6.2191 1.3463v7.6568a10.353 10.353 0 0 0-5.1948-1.3463c-5.9228 0-10.58 4.5765-10.58 10.426a10.335 10.335 0 0 0 10.375 10.474 9.1897 9.1897 0 0 0 5.4618-1.767zm-28.238-15.621c1.9608 0 3.6144 1.2694 4.2692 3.2303h-8.4909c0.6146-2.0377 2.1547-3.2303 4.2327-3.2303m-10.514 5.4765c0 5.9265 4.8473 10.543 11.077 10.543 3.4242 0 5.9264-0.92555 8.5056-3.0803l-4.1192-3.6583c-0.96214 1.0024-2.3852 1.5401-4.0754 1.5401a5.2643 5.2643 0 0 1-5.0046-3.2303h14.505v-1.5365c0-6.4642-4.3461-11.118-10.273-11.118a10.452 10.452 0 0 0-10.609 10.54m-10.741-11.118c2.195 0 3.4242 1.3828 3.4242 3.0401 0 1.6572-1.2328 3.0401-3.4242 3.0401h-6.541v-6.0801zm-13.17 21.277h6.6179v-9.8116h5.0375l5.0814 9.8116h7.3861l-5.9265-10.774a8.147 8.147 0 0 0 5.0777-7.58c0-4.8473-3.8083-8.5787-9.5116-8.5787h-13.752z" stroke-width=".36583"/>
 <path transform="scale(.625)" d="m26.419 31.623c0.51685 0.04947 1.0358 0.07423 1.555 0.07428 0.51925 0 1.0382-0.02487 1.5551-0.07439 0.25856-0.02467 0.51671-0.05553 0.77404-0.0928 0.15361-0.02213 0.3064-0.05093 0.4595-0.07759 0.1033-0.01787 0.20701-0.0324 0.31-0.0524 0.51253-0.09927 1.02-0.22316 1.5206-0.37121 0.75683-0.224 1.4962-0.50316 2.2122-0.83526 0.05391-0.02507 0.10732-0.05147 0.16102-0.07717 0.0059-4e-3 0.01193-0.0075 0.01789-0.011 0.34119-0.20155 0.71026-0.35168 1.0953-0.44551 0.18974-0.0462 0.38253-0.07876 0.5769-0.09744 0.45375-0.04333 0.91156-0.0104 1.3544 0.09744 0.1271 0.03107 0.25264 0.06829 0.37616 0.11142 0.44269 0.15473 0.85496 0.38558 1.2182 0.68216 0.16136 0.13151 0.3124 0.27518 0.45179 0.42977 0.04671 0.05147 0.09137 0.10361 0.13468 0.1567 0.04342 0.05307 0.08509 0.107 0.12532 0.16185 0.03982 0.05473 0.07881 0.11019 0.11595 0.16637 0.03663 0.05627 0.07264 0.11318 0.1067 0.1708 0.03435 0.0576 0.06657 0.11595 0.09744 0.17481 0.06176 0.11706 0.11754 0.23718 0.16709 0.35991 0.02469 0.061 0.04764 0.12254 0.06955 0.18448 0.02202 0.06193 0.04219 0.12429 0.0604 0.18695 0.01873 0.0628 0.03571 0.12584 0.05124 0.18932 0.04655 0.18967 0.07923 0.38249 0.09774 0.5769 0.01233 0.12913 0.01881 0.25897 0.01881 0.38872 0 0.32536-0.03941 0.64953-0.11657 0.96561-0.01547 0.06347-0.03256 0.12652-0.05124 0.18911-0.07476 0.253-0.17426 0.49803-0.29704 0.73154-0.03109 0.059-0.06359 0.11725-0.09743 0.17471-0.03428 0.0576-0.06956 0.11452-0.1067 0.1708-0.0374 0.05633-0.07606 0.11185-0.11595 0.16647-0.08132 0.1104-0.1681 0.21667-0.26 0.31845-0.04661 0.05147-0.09425 0.10186-0.14374 0.15135-0.19409 0.19417-0.40726 0.36827-0.63627 0.51969-0.11177 0.07373-0.22711 0.14189-0.3456 0.20424-0.23356 0.12259-0.47854 0.22207-0.73144 0.29704-0.12516 0.03693-0.25198 0.06789-0.38007 0.09281-0.5117 0.09891-1.0376 0.09891-1.5493 0-0.51997-0.10045-1.0151-0.30228-1.4571-0.59398-0.41773-0.27595-0.85551-0.52027-1.3097-0.73093-0.1497-0.06947-0.3011-0.13524-0.45405-0.19724-0.12678-0.0508-0.2546-0.09907-0.38336-0.14467-0.02612-0.0093-0.05186-0.02013-0.07778-0.02933-0.92411-0.3231-1.8902-0.51066-2.868-0.55684-0.97515-0.04653-1.9519 0.04727-2.9004 0.27841-0.3178 0.07759-0.63167 0.17051-0.94051 0.27843-0.31091 0.10871-0.61631 0.2326-0.9151 0.37122-0.02427 0.0112-0.04764 0.02407-0.07171 0.03547 0 0.0027 0 6e-3 0.0051 0.0089 0.02192 0.06193 0.04527 0.12347 0.06955 0.18448 0.07507 0.18442 0.16344 0.36313 0.26443 0.53472 0.10341 0.17479 0.21976 0.34159 0.34807 0.49901 0.04301 0.05307 0.08817 0.10536 0.13458 0.1567 0.04671 0.05147 0.09435 0.10186 0.14394 0.15135 0.09784 0.09804 0.20066 0.19097 0.30805 0.27842 0.02377 0.01953 0.04815 0.03747 0.07264 0.0564 0.02984 0.02307 0.05896 0.0468 0.0891 0.06893 0.21594 0.15883 0.44722 0.29567 0.69039 0.40847 0.11952 0.0554 0.24166 0.10495 0.36598 0.14847 0.43129 0.15071 0.88492 0.22758 1.3418 0.22739 0.32539 1e-4 0.64958 0.03907 0.96572 0.11606 0.19098 0.04667 0.37832 0.10713 0.56054 0.18088 0.43755 0.17735 0.84049 0.43026 1.1904 0.74718 0.15439 0.13964 0.29805 0.2907 0.42977 0.45189 0.12858 0.1572 0.24491 0.32403 0.34797 0.49901 0.03395 0.0576 0.06657 0.11597 0.09754 0.17481 0.03106 0.05887 0.06029 0.11832 0.08807 0.17831 0.02799 0.06 0.05423 0.12059 0.07892 0.1816 0.02469 0.061 0.04775 0.12254 0.06966 0.18449 0.02191 0.06193 0.04219 0.12429 0.06029 0.18705 0.01884 0.0628 0.0353 0.12573 0.05144 0.18911 0.01544 0.0634 0.02879 0.12707 0.04209 0.19096 0.04943 0.25529 0.07438 0.51472 0.07449 0.77476 0 0.25999-0.02517 0.51938-0.07449 0.77465-0.01233 0.06387-0.02652 0.12759-0.04219 0.19096-0.01551 0.06347-0.03259 0.12659-0.05134 0.18921-0.01873 0.0628-0.03889 0.12501-0.06029 0.18695-0.02202 0.06193-0.04445 0.12347-0.06966 0.18448-0.04982 0.12259-0.10554 0.2427-0.16699 0.35991-0.03109 0.059-0.06363 0.11732-0.09754 0.17481-0.03424 0.05773-0.06983 0.11469-0.1067 0.1708-0.03738 0.05633-0.07605 0.11187-0.11596 0.16647-0.08129 0.11039-0.16803 0.21667-0.2599 0.31844-0.04661 0.05147-0.09435 0.10186-0.14384 0.15135-0.14623 0.14619-0.30328 0.28115-0.46979 0.40374-0.10868 0.07977-0.22124 0.15411-0.33727 0.22275-0.39766 0.23491-0.83272 0.39973-1.2862 0.48729-0.77242 0.14945-1.5716 0.07208-2.301-0.22276-0.12268-0.0496-0.24279-0.10536-0.35991-0.16699-0.11851-0.06227-0.23382-0.13042-0.3455-0.20423-0.17098-0.11279-0.33313-0.23843-0.48502-0.37586-0.10328-0.09338-0.20181-0.1919-0.29519-0.29519-0.04661-0.05147-0.09126-0.10361-0.13458-0.1567-0.12832-0.15741-0.24467-0.32422-0.34807-0.49901-0.034-0.0574-0.06645-0.11569-0.09733-0.17481-0.09225-0.17536-0.17134-0.35732-0.23665-0.54439-0.04329-0.12346-0.08037-0.24901-0.11112-0.37617-0.04649-0.18968-0.07916-0.38248-0.09774-0.57689-0.01248-0.12923-0.01879-0.25899-0.01893-0.38882 0-0.32537-0.03941-0.64954-0.11657-0.96562-0.01558-0.0634-0.03252-0.12651-0.05083-0.18921-0.01877-0.06273-0.03888-0.12506-0.06029-0.18695-0.02203-0.06193-0.04527-0.12347-0.06966-0.18449-0.02469-0.0612-0.05097-0.12176-0.07881-0.1816-0.02797-0.06013-0.05736-0.11965-0.08818-0.17841-0.03113-0.059-0.06366-0.11724-0.09754-0.17471-0.03395-0.0576-0.06966-0.11451-0.1067-0.17079-0.15142-0.22901-0.32553-0.44217-0.51969-0.63627-0.0097-0.0097-0.01976-0.0186-0.02933-0.02827-0.03982-0.03913-0.08025-0.0783-0.12151-0.11565-0.15203-0.13725-0.31416-0.26289-0.48502-0.37585-0.11177-0.07369-0.22711-0.14181-0.3456-0.20413-0.23349-0.12267-0.47844-0.22216-0.73134-0.29704-0.12513-0.037-0.25197-0.06799-0.38007-0.09281-0.01287-0.0027-0.02665-0.0033-0.03992-6e-3 -0.11461-0.02153-0.23009-0.0382-0.34612-0.04987-0.65145-0.06253-1.3084 0.03293-1.9151 0.27832-0.36742 0.14911-0.72925 0.31165-1.0848 0.48728-0.47846 0.23664-0.94492 0.49682-1.3976 0.77959-0.57497 0.35959-1.1268 0.75485-1.6524 1.1834-0.32111 0.26182-0.63209 0.53581-0.93228 0.82137-0.403 0.38333-0.78651 0.78665-1.1491 1.2084-0.17848 0.20807-0.35173 0.42057-0.51959 0.6373-0.24917 0.32152-0.48605 0.65237-0.71014 0.99185-0.1479 0.22416-0.2902 0.45195-0.42678 0.68319-0.06802 0.11496-0.13456 0.23079-0.19961 0.34746-0.12963 0.23235-0.25344 0.46791-0.37133 0.70643-0.04208 0.08437-0.0818 0.16946-0.12192 0.25455 10.477 7.8608 25.148 6.8199 34.43-2.4429 10.296-10.296 10.305-26.98 0.02107-37.264l-0.0045 2.07e-4c-10.284-10.284-26.967-10.274-37.263 0.0217-9.2599 9.2829-10.299 23.952-2.4383 34.428 0.083549-0.03953 0.16709-0.07881 0.25002-0.11986 0.35834-0.17695 0.70989-0.36733 1.0539-0.57073 0.46434-0.27416 0.91457-0.57154 1.349-0.89102 0.21995-0.16153 0.43574-0.32865 0.64717-0.50118 0.21338-0.17419 0.42238-0.35368 0.6268-0.53831 0.20666-0.18661 0.40849-0.37849 0.6053-0.57546 0.19681-0.19693 0.38866-0.39875 0.57536-0.6053 0.18485-0.20429 0.36438-0.41333 0.53842-0.62691 0.17233-0.21156 0.3394-0.42735 0.50107-0.64717 0.16021-0.21801 0.31497-0.43997 0.46414-0.66569 0.22171-0.33564 0.43073-0.6795 0.6266-1.0308 0.1943-0.34801 0.37537-0.70323 0.54284-1.0649 0.11107-0.23953 0.21629-0.48174 0.31556-0.7264 0.02469-0.06093 0.04815-0.12244 0.06956-0.18438 0.02203-0.06193 0.04218-0.12429 0.06029-0.18695 0.0744-0.24995 0.12436-0.50652 0.14919-0.76611 0.01234-0.12923 0.01882-0.25897 0.01882-0.38882 0-0.12964-0.0065-0.25949-0.01882-0.38872-0.01185-0.11603-0.02842-0.23154-0.04969-0.34622-0.0051-0.01313-0.0051-0.02653-0.0055-0.03973-0.01234-0.06387-0.02654-0.12758-0.04208-0.19096-0.03074-0.12717-0.06782-0.25271-0.11112-0.37617-0.02164-0.06207-0.04482-0.12358-0.06955-0.18448-0.07509-0.18442-0.1635-0.36313-0.26453-0.53472-0.0684-0.11618-0.14275-0.22876-0.22276-0.33727-0.0813-0.11039-0.16804-0.21667-0.2599-0.31844-0.03777-0.04127-0.07629-0.08179-0.11555-0.12161-0.01007-0.0097-0.01882-0.02-0.02839-0.02973-0.14616-0.14627-0.30321-0.28124-0.46979-0.40374-0.26925-0.19799-0.56214-0.36165-0.87188-0.48719-0.3637-0.14753-0.74693-0.24135-1.1376-0.27852-0.1292-0.01233-0.25892-0.01853-0.38872-0.01853-0.58984-6e-5 -1.1726-0.12834-1.708-0.37596-0.1207-0.05601-0.23848-0.11798-0.35296-0.18572-0.11612-0.068467-0.22869-0.14278-0.33727-0.22265-0.33376-0.24523-0.62831-0.53977-0.87353-0.87353-0.27611-0.37571-0.48498-0.79645-0.61734-1.2435-0.018679-0.06253-0.035606-0.12561-0.050723-0.18911-0.046558-0.18967-0.079228-0.38249-0.097746-0.57691-0.012427-0.12923-0.018654-0.25899-0.018734-0.38882 2.766e-4 -0.39097 0.056645-0.77987 0.1674-1.1548 0.074767-0.25296 0.17423-0.49795 0.29694-0.73144 0.03066-0.05887 0.063484-0.11709 0.097436-0.17471 0.033957-0.0576 0.069658-0.11462 0.1067-0.1708 0.18994-0.28725 0.41541-0.54936 0.67105-0.78011 0.10174-0.09198 0.20809-0.17873 0.31865-0.25989 0.16234-0.11951 0.33349-0.22659 0.51198-0.32029 0.11713-0.0616 0.23725-0.11733 0.35991-0.16699 0.12168-0.0492 0.24563-0.09256 0.37143-0.12995 0.24999-0.07407 0.50655-0.12379 0.76612-0.14847 0.25855-0.02487 0.51888-0.02487 0.77743 0 0.32491 0.0312 0.64489 0.10132 0.95306 0.20887 0.44273 0.15464 0.85501 0.3855 1.2182 0.68216 0.21474 0.17523 0.41123 0.37172 0.58647 0.58647 0.12857 0.1572 0.2449 0.32403 0.34797 0.49901 0.03437 0.0576 0.06657 0.11585 0.09744 0.17471 0.09241 0.17531 0.17152 0.35732 0.23664 0.54449 0.02203 0.06187 0.04219 0.12419 0.06039 0.18695 0.03735 0.12509 0.06853 0.25193 0.09342 0.38007 0.04939 0.25529 0.0743 0.51473 0.07439 0.77475 2.77e-4 0.32537 0.03942 0.64953 0.11657 0.96562 0.01544 0.0634 0.03241 0.12655 0.05124 0.18921 0.01882 0.06273 0.03889 0.12501 0.06039 0.18695 0.02151 0.06193 0.04527 0.12347 0.06955 0.18447 0.10029 0.24681 0.22467 0.48312 0.37133 0.70552 0.03663 0.05627 0.07572 0.11173 0.11596 0.16647 0.02244 0.03013 0.04609 0.05947 0.06894 0.0891 0.01882 0.0242 0.03663 0.04873 0.05638 0.07265 0.04345 0.05347 0.08832 0.10575 0.13458 0.15679 0.04661 0.05127 0.09425 0.10187 0.14374 0.15125 0.3362 0.33654 0.72889 0.61141 1.1602 0.81211 0.11957 0.0554 0.24178 0.10497 0.36618 0.14847 0.0051 0.0013 0.0055 0.0027 0.0086 0.0027 0.01143-0.02393 0.02427-0.04753 0.03529-0.07171 0.06944-0.1497 0.13517-0.3011 0.19714-0.45405 0.12347-0.30403 0.23188-0.61396 0.32482-0.92867 0.04647-0.15657 0.089-0.31429 0.12758-0.47299 0.03899-0.15845 0.07346-0.31751 0.10443-0.47741 0.03066-0.15979 0.05803-0.32019 0.08128-0.48101 0.04645-0.3214 0.07742-0.64485 0.09281-0.96922 0.0077-0.16205 0.01185-0.3242 0.01185-0.48646 0-0.16215-0.0051-0.32441-0.01193-0.48646-0.01539-0.32437-0.04636-0.64782-0.09281-0.96922-0.02331-0.16095-0.05037-0.32133-0.08118-0.48101-0.03107-0.15979-0.06575-0.31896-0.10433-0.47741-0.03861-0.1587-0.08119-0.31641-0.12769-0.47298-0.04636-0.15705-0.09665-0.31291-0.15084-0.46743-0.0092-0.02613-0.01954-0.05173-0.02881-0.07789-0.04561-0.12875-0.09384-0.25657-0.14466-0.38336-0.25022-0.61718-0.5611-1.208-0.92806-1.7637-0.03755-0.0562-0.07264-0.11317-0.1067-0.17079-0.03396-0.0576-0.06657-0.11585-0.09754-0.17471-0.03091-0.05867-0.06027-0.11819-0.08807-0.17841-0.05563-0.11945-0.10518-0.24163-0.14847-0.36608-0.02192-0.06173-0.04206-0.12407-0.06039-0.18695-0.01846-0.06267-0.03557-0.12579-0.05134-0.18921-0.01517-0.0634-0.02921-0.12706-0.04208-0.19097-0.04943-0.25529-0.07437-0.51472-0.07449-0.77475 2.77e-4 -0.32537 0.03942-0.64953 0.11657-0.96562 0.01553-0.0634 0.03251-0.12635 0.05134-0.18911 0.01873-0.06273 0.03838-0.12512 0.06019-0.18705 0.02203-0.06193 0.04527-0.12347 0.06976-0.18449 0.04983-0.12259 0.10556-0.24269 0.16699-0.3599 0.03107-0.05887 0.06338-0.11719 0.09744-0.17481 0.03437-0.0576 0.06966-0.11451 0.1067-0.17079 0.22811-0.34497 0.5072-0.65337 0.82774-0.91469 0.10536-0.08579 0.2149-0.16631 0.32822-0.24128 0.16719-0.11025 0.34231-0.20798 0.52391-0.29241 0.17908-0.08293 0.36394-0.15273 0.55313-0.20887 0.12515-0.03687 0.25198-0.06784 0.38007-0.09271 0.2553-0.04933 0.51473-0.07421 0.77476-0.07429 0.25999 1.06e-4 0.51938 0.025 0.77466 0.07429 0.19247 0.03733 0.38201 0.08851 0.56713 0.1531 0.18708 0.06527 0.36904 0.14438 0.54439 0.23665 0.36196 0.19031 0.69298 0.43439 0.98177 0.72393 0.0498 0.04947 0.09744 0.10001 0.14384 0.15135 0.04671 0.05147 0.09137 0.10361 0.13458 0.1567 0.12859 0.15721 0.24496 0.32403 0.34808 0.49901 0.06751 0.11465 0.12946 0.23249 0.18561 0.35312 0.02799 0.06 0.05412 0.12058 0.07891 0.18159 0.02469 0.06113 0.04815 0.12255 0.06956 0.18449 0.0433 0.12345 0.08038 0.24899 0.11112 0.37616 0.01563 0.0634 0.02984 0.12707 0.04219 0.19096 0.04943 0.2553 0.07437 0.51473 0.07449 0.77476-2.77e-4 0.32537-0.03941 0.64953-0.11658 0.96562-0.03081 0.12714-0.0679 0.25269-0.11112 0.37616-0.02161 0.06193-0.04445 0.12347-0.06966 0.18449-0.07488 0.18449-0.16326 0.36321-0.26442 0.53471-0.0051 6e-3 -0.0074 0.01173-0.01101 0.01773-0.02613 0.05373-0.05217 0.10701-0.07717 0.16103-0.2769 0.59721-0.51714 1.2107-0.7194 1.8372-0.08041 0.24897-0.15464 0.49989-0.22265 0.75253-0.1019 0.37776-0.19013 0.75907-0.26453 1.1432-0.01965 0.10289-0.03426 0.20681-0.05237 0.31001-0.02654 0.1531-0.05535 0.30589-0.07758 0.45961-0.03704 0.25733-0.06791 0.51547-0.09281 0.77393-0.04951 0.51691-0.07437 1.0359-0.07449 1.5552 2.08e-4 0.51921 0.02505 1.0381 0.0746 1.555m-1.03e-4 1e-4c0.02469 0.25857 0.05577 0.51651 0.09291 0.77394 0.02881 0.20084 0.06482 0.40075 0.10135 0.60057 0.0051-2e-3 0.0077-4e-3 0.01132-0.0053 0.35832-0.17704 0.7099-0.36742 1.054-0.57073 0.34756-0.20522 0.68723-0.4235 1.0183-0.65438 0.4479-0.31209 0.87973-0.64663 1.2938-1.0023 0.21002-0.18047 0.41549-0.36618 0.6162-0.55694 0.40314-0.38323 0.78668-0.78655 1.1492-1.2084 0.2672-0.31137 0.52258-0.63268 0.7656-0.96325 0.16018-0.21805 0.3149-0.44005 0.46403-0.6658 0.14797-0.22416 0.29034-0.45196 0.42699-0.68318 0.27078-0.45818 0.51856-0.92955 0.74245-1.4124 0.11108-0.23953 0.21629-0.48173 0.31556-0.7264 0.0497-0.12203 0.09744-0.24457 0.14384-0.36762 0.04647-0.12284 0.09134-0.24629 0.13458-0.3703 0.01924-0.05473 0.03663-0.10989 0.05535-0.16483 0-0.0074 0.0051-0.01513 0.0051-0.02267 0.01544-0.0634 0.03241-0.12635 0.05124-0.18911 0.01873-0.06273 0.03889-0.12501 0.0604-0.18695 0.02191-0.06193 0.04435-0.12347 0.06956-0.18459 0.07508-0.18441 0.16346-0.36311 0.26442-0.53472 0.03435-0.0576 0.06976-0.11451 0.1069-0.17079 0.03651-0.0562 0.07573-0.11164 0.11596-0.16637 0.04041-0.05493 0.08217-0.10886 0.12522-0.16175 0.04311-0.05307 0.08828-0.10546 0.13468-0.1568 0.04661-0.05147 0.09425-0.10187 0.14374-0.15125 0.04939-0.0496 0.10001-0.09754 0.15145-0.14395 0.10164-0.09198 0.20793-0.17869 0.31844-0.25979 0.1086-0.0799 0.22116-0.15424 0.33727-0.22276 0.22808-0.13491 0.469-0.24686 0.7192-0.33418 0.18508-0.0646 0.37458-0.11579 0.56702-0.1531 0.57637-0.11152 1.17-0.09727 1.7404 0.0418 0.12706 0.03113 0.25256 0.06831 0.37606 0.11143 0.31378 0.1095 0.61274 0.25756 0.88999 0.44078 0.11344 0.07483 0.22298 0.15539 0.32822 0.24137 0.10734 0.08753 0.21016 0.18045 0.30805 0.27843 0.01141 0.01133 0.02202 0.02293 0.03252 0.03433 0.01141 0.0112 0.02283 0.02133 0.03439 0.03253 0.04969 0.04947 0.09744 0.10001 0.14374 0.15125 0.04671 0.05147 0.09136 0.10371 0.13458 0.15681 0.12862 0.15721 0.24502 0.32403 0.34818 0.49901 0.03424 0.0576 0.06647 0.11585 0.09744 0.17481 0.03106 0.05887 0.06029 0.11833 0.08807 0.17831 0.02799 0.06 0.05423 0.12059 0.07891 0.1816 0.02469 0.061 0.04775 0.12254 0.06966 0.18448 0.02191 0.06193 0.04208 0.12429 0.06029 0.18705 0.01881 0.06273 0.03571 0.12573 0.05083 0.18911 0.01551 0.0634 0.02879 0.12707 0.04219 0.19096 0.0494 0.2553 0.07431 0.51473 0.07439 0.77476 0 0.26-0.02506 0.51939-0.07449 0.77465-0.02539 0.12803-0.05639 0.25487-0.09291 0.38017-0.0188 0.06267-0.03899 0.12501-0.06039 0.18695-0.02191 0.06193-0.04527 0.12347-0.06956 0.18448-0.02469 0.061-0.05083 0.12161-0.07891 0.1816-0.05618 0.12061-0.11812 0.23845-0.18561 0.35311-0.10323 0.17491-0.21959 0.34173-0.34808 0.49901-0.04357 0.05333-0.08844 0.10557-0.13458 0.15671-0.04671 0.05147-0.09435 0.10186-0.14384 0.15135-0.24153 0.24202-0.51271 0.45252-0.80707 0.62649-0.2282 0.13467-0.46909 0.24657-0.71919 0.33408-0.12347 0.0432-0.24897 0.08041-0.37606 0.11143-0.0073 2e-3 -0.01515 0.0033-0.02294 0.0053-0.05484 0.01853-0.11009 0.03633-0.16483 0.05547-0.62266 0.21759-1.2313 0.47331-1.8226 0.76571-0.23852 0.11783-0.47408 0.24161-0.70644 0.37122-0.70664 0.39427-1.3827 0.841-2.0225 1.3364-0.21678 0.16782-0.42925 0.34114-0.6372 0.51979-0.21013 0.18038-0.41563 0.36609-0.61631 0.55695-0.60196 0.57231-1.1598 1.1893-1.6689 1.8456-0.24898 0.32161-0.4858 0.65246-0.70994 0.99185-0.29488 0.44693-0.56743 0.90819-0.81663 1.3821-0.06173 0.11781-0.12223 0.23613-0.18098 0.35497-0.0051 4e-3 -0.0051 0.0075-0.0051 0.01133 0.19981 0.03653 0.39972 0.07243 0.60057 0.10145 0.25722 0.03707 0.51537 0.06801 0.77393 0.09281" fill="#e00" stroke-width=".10289"/>
</svg>
